# 3ds Max Wavefront OBJ Exporter v0.97b - (c)2007 guruware
# File Created: 11.11.2016 20:36:29

mtllib Head_D_3A.mtl

#
# object Head_D_3A
#

v  -13.5261 0.7937 1.8969
v  -12.4990 0.7937 2.9240
v  12.4990 0.7937 2.9240
v  13.5261 0.7937 1.8969
v  13.5261 0.7937 -1.8969
v  12.4990 0.7937 -2.9240
v  -12.4990 0.7937 -2.9240
v  -13.5261 0.7937 -1.8969
v  13.5261 -0.7937 1.8969
v  12.4990 -0.7937 2.9240
v  -12.4990 -0.7937 2.9240
v  -13.5261 -0.7937 1.8969
v  -13.5261 -0.7937 -1.8969
v  -12.4990 -0.7937 -2.9240
v  12.4990 -0.7937 -2.9240
v  13.5261 -0.7937 -1.8969
# 16 vertices

vn 0.0000 1.0000 -0.0000
vn 0.0000 -1.0000 -0.0000
vn 0.0000 0.0000 1.0000
vn -1.0000 0.0000 -0.0000
vn 0.0000 0.0000 -1.0000
vn 1.0000 0.0000 -0.0000
vn -0.7071 0.0000 0.7071
vn 0.7071 0.0000 0.7071
vn -0.7071 0.0000 -0.7071
vn 0.7071 0.0000 -0.7071
# 10 vertex normals

g Head_D_3A
usemtl wire_086086086
s 1
f 1//1 2//1 3//1 4//1 5//1 6//1 7//1 8//1 
f 9//2 10//2 11//2 12//2 13//2 14//2 15//2 16//2 
s 2
f 3//3 2//3 11//3 10//3 
f 1//4 8//4 13//4 12//4 
f 7//5 6//5 15//5 14//5 
f 4//6 9//6 16//6 5//6 
s 4
f 2//7 1//7 12//7 11//7 
f 10//8 9//8 4//8 3//8 
f 8//9 7//9 14//9 13//9 
f 6//10 5//10 16//10 15//10 
# 10 polygons

