# 3ds Max Wavefront OBJ Exporter v0.97b - (c)2007 guruware
# File Created: 11.11.2016 20:42:40

mtllib Head_D_3C.mtl

#
# object Head_D_3C
#

v  -2.9777 0.7937 2.4006
v  -2.2713 0.7937 2.9240
v  3.9188 0.7937 2.9240
v  10.6902 0.7937 1.7767
v  10.6902 0.7937 -1.7767
v  3.9188 0.7937 -2.9240
v  -2.2713 0.7937 -2.9240
v  -2.9777 0.7937 -2.4006
v  10.6902 -0.7937 1.7767
v  3.9188 -0.7937 2.9240
v  -2.2713 -0.7937 2.9240
v  -2.9777 -0.7937 2.4006
v  -2.9777 -0.7937 -2.4006
v  -2.2713 -0.7937 -2.9240
v  3.9188 -0.7937 -2.9240
v  10.6902 -0.7937 -1.7767
# 16 vertices

vn 0.0000 1.0000 -0.0000
vn 0.0000 -1.0000 -0.0000
vn -0.0000 -1.0000 -0.0000
vn -0.0000 -1.0000 0.0000
vn 0.0000 0.0000 1.0000
vn 1.0000 0.0000 -0.0000
vn 0.0000 0.0000 -1.0000
vn -1.0000 0.0000 -0.0000
vn 0.2230 0.0000 0.9748
vn 0.2230 0.0000 -0.9748
vn -0.7071 0.0000 0.7071
vn -0.7071 0.0000 -0.7071
# 12 vertex normals

g Head_D_3C
usemtl wire_086086086
s 1
f 1//1 2//1 3//1 4//1 5//1 6//1 7//1 8//1 
f 9//2 10//3 11//4 12//4 13//3 14//3 15//4 16//4 
s 2
f 3//5 2//5 11//5 10//5 
f 4//6 9//6 16//6 5//6 
f 7//7 6//7 15//7 14//7 
f 8//8 13//8 12//8 1//8 
s 4
f 10//9 9//9 4//9 3//9 
f 16//10 15//10 6//10 5//10 
f 2//11 1//11 12//11 11//11 
f 14//12 13//12 8//12 7//12 
# 10 polygons

