# 3ds Max Wavefront OBJ Exporter v0.97b - (c)2007 guruware
# File Created: 11.11.2016 23:00:09

mtllib limb_c2.mtl

#
# object limb_C_2
#

v  -2.3355 3.5336 1.8336
v  -13.4278 5.6712 1.8336
v  -13.2365 4.8604 0.0000
v  -2.6855 2.8272 -0.0000
v  -1.4905 5.2391 2.5931
v  -13.8897 7.6285 2.5931
v  -0.6456 6.9446 1.8336
v  -14.3516 9.5858 1.8336
v  -0.2956 7.6511 -0.0000
v  -14.5429 10.3966 0.0000
v  -0.6456 6.9446 -1.8336
v  -14.3516 9.5858 -1.8336
v  -1.4905 5.2391 -2.5931
v  -13.8897 7.6285 -2.5931
v  -2.3355 3.5336 -1.8336
v  -13.4278 5.6712 -1.8336
v  6.7536 -4.6079 1.8336
v  6.1739 -5.1086 -0.0000
v  8.1533 -3.3993 2.5931
v  9.5529 -2.1906 1.8336
v  10.1326 -1.6900 -0.0000
v  9.5529 -2.1906 -1.8336
v  8.1533 -3.3993 -2.5931
v  6.7536 -4.6079 -1.8336
v  10.4558 -8.8103 1.8336
v  9.8529 -9.2758 -0.0000
v  11.9115 -7.6865 2.5931
v  13.3671 -6.5628 1.8336
v  13.9701 -6.0973 -0.0000
v  13.3671 -6.5628 -1.8336
v  11.9115 -7.6865 -2.5931
v  10.4558 -8.8103 -1.8336
v  14.3018 -12.8122 1.8336
v  14.2605 -13.5710 -0.0000
v  14.4017 -10.9803 2.5930
v  14.5016 -9.1484 1.8336
v  14.5429 -8.3896 -0.0000
v  14.5016 -9.1484 -1.8336
v  14.4017 -10.9803 -2.5931
v  14.3018 -12.8122 -1.8336
v  14.3027 -12.7974 -0.0000
v  14.3317 -12.2652 1.2861
v  14.4017 -10.9803 1.8188
v  14.4718 -9.6954 1.2861
v  14.5008 -9.1632 -0.0000
v  14.4718 -9.6954 -1.2861
v  14.4017 -10.9803 -1.8188
v  14.3317 -12.2652 -1.2861
v  14.3390 -12.1300 -0.0000
v  14.3390 -12.1300 0.0000
v  14.3574 -11.7933 0.8137
v  14.4017 -10.9803 1.1508
v  14.4460 -10.1673 0.8137
v  14.4644 -9.8306 -0.0000
v  14.4460 -10.1673 -0.8137
v  14.4017 -10.9803 -1.1508
v  14.3574 -11.7933 -0.8137
v  14.4017 -10.9803 0.0000
v  -3.0047 13.5710 -0.0000
v  -6.5875 8.0496 1.1273
v  -2.6609 6.9969 1.1273
v  -2.6609 6.9969 -1.1273
v  -6.5875 8.0496 -1.1273
v  -4.6242 7.5232 -0.0000
v  8.8788 6.5919 -0.0000
v  3.0169 3.6027 1.1273
v  5.8913 0.7266 1.1273
v  5.8913 0.7266 -1.1273
v  3.0169 3.6027 -1.1273
v  4.4541 2.1647 -0.0000
v  -13.5263 6.0884 1.4427
v  -13.3757 5.4504 0.0000
v  -13.8897 7.6285 2.0403
v  -14.2532 9.1686 1.4427
v  -14.4037 9.8065 0.0000
v  -14.2532 9.1686 -1.4427
v  -13.8897 7.6285 -2.0403
v  -13.5263 6.0884 -1.4427
v  -13.7608 7.0821 0.5118
v  -13.7074 6.8558 0.0000
v  -13.8897 7.6285 0.7238
v  -14.0187 8.1748 0.5118
v  -14.0721 8.4012 0.0000
v  -14.0187 8.1748 -0.5118
v  -13.8897 7.6285 -0.7238
v  -13.7608 7.0821 -0.5118
v  -13.8087 7.2849 0.3219
v  -13.7751 7.1426 0.0000
v  -13.8897 7.6285 0.4552
v  -13.9708 7.9721 0.3219
v  -14.0044 8.1144 0.0000
v  -13.9708 7.9721 -0.3219
v  -13.8897 7.6285 -0.4552
v  -13.8087 7.2849 -0.3219
# 94 vertices

vn -0.2936 -0.5923 0.7503
vn -0.1242 -0.6446 0.7543
vn -0.1891 -0.9820 0.0000
vn -0.4441 -0.8960 0.0000
vn 0.0282 0.0569 0.9980
vn 0.0195 0.1013 0.9947
vn 0.3236 0.6527 0.6850
vn 0.1440 0.7475 0.6485
vn 0.4441 0.8960 -0.0000
vn 0.1891 0.9820 -0.0000
vn 0.3236 0.6527 -0.6850
vn 0.1440 0.7475 -0.6485
vn 0.0282 0.0569 -0.9980
vn 0.0195 0.1013 -0.9947
vn -0.2936 -0.5923 -0.7503
vn -0.1242 -0.6446 -0.7543
vn -0.4958 -0.4918 0.7157
vn -0.7089 -0.7053 -0.0001
vn 0.0100 0.0110 0.9999
vn 0.5074 0.5009 0.7011
vn 0.7124 0.7017 0.0001
vn 0.5072 0.5012 -0.7011
vn 0.0097 0.0108 -0.9999
vn -0.4956 -0.4921 -0.7157
vn -0.5310 -0.4775 0.7000
vn -0.7291 -0.6844 -0.0045
vn 0.0069 0.0057 1.0000
vn 0.6381 0.3904 0.6636
vn 0.8707 0.4915 0.0192
vn 0.6106 0.4055 -0.6803
vn 0.0074 -0.0069 -0.9999
vn -0.5202 -0.4881 -0.7008
vn 0.3541 -0.7281 0.5870
vn 0.2921 -0.9564 -0.0093
vn 0.5553 -0.2007 0.8070
vn 0.9064 0.1885 0.3780
vn 0.9858 0.1624 0.0421
vn 0.9059 0.1680 -0.3888
vn 0.5253 -0.2155 -0.8231
vn 0.3418 -0.7293 -0.5927
vn 0.9985 -0.0545 0.0000
vn 0.9985 -0.0545 -0.0000
vn 0.9987 -0.0511 0.0042
vn 0.9993 -0.0362 0.0083
vn 0.0459 0.1713 0.9842
vn 0.9986 0.0522 -0.0000
vn 0.0459 0.1713 -0.9842
vn -0.8387 0.5446 0.0000
vn -0.2588 -0.9659 0.0000
vn -0.2588 -0.9659 -0.0000
vn 0.1254 0.1254 0.9842
vn 0.8910 -0.4541 -0.0000
vn 0.1254 0.1254 -0.9842
vn -0.4541 0.8910 0.0000
vn -0.7071 -0.7071 0.0000
vn -0.9732 -0.2298 0.0000
vn -0.9732 -0.2298 -0.0000
# 57 vertex normals

vt 0.7067 0.0339 0.0000
vt 0.4595 0.1305 0.0000
vt 0.4637 0.0939 0.0000
vt 0.6989 0.0020 0.0000
vt 0.7255 0.1110 0.0000
vt 0.4492 0.2190 0.0000
vt 0.7444 0.1881 0.0000
vt 0.4389 0.3075 0.0000
vt 0.4403 0.8504 0.1354
vt 0.4447 0.4262 0.1607
vt 0.3935 0.4354 0.1693
vt 0.3889 0.8435 0.1808
vt 0.4886 0.8447 0.1922
vt 0.4900 0.4366 0.2375
vt 0.5244 0.8296 0.1663
vt 0.5236 0.4605 0.2088
vt 0.5644 0.8141 -0.0580
vt 0.5605 0.4839 -0.0302
vt 0.6610 0.8072 -0.2156
vt 0.6539 0.4930 -0.2375
vt 0.3125 0.0165 0.0328
vt 0.3099 0.3713 0.0595
vt 0.2710 0.3648 0.1016
vt 0.2710 0.0190 0.0698
vt 0.3630 0.0105 -0.0370
vt 0.3573 0.3870 -0.0295
vt 0.4218 0.0045 -0.0666
vt 0.4163 0.4027 -0.0895
vt 0.0638 0.0020 -0.0642
vt 0.0638 0.4091 -0.1016
vt 0.0020 0.4027 -0.0895
vt 0.0075 0.0045 -0.0666
vt 0.1202 0.0045 -0.0666
vt 0.1257 0.4027 -0.0895
vt 0.1790 0.0105 -0.0370
vt 0.1847 0.3870 -0.0295
vt 0.2294 0.0165 0.0328
vt 0.2321 0.3713 0.0595
vt 0.2601 0.6156 0.0538
vt 0.2497 0.7888 0.0742
vt 0.1869 0.7864 -0.0055
vt 0.1869 0.6145 -0.0559
vt 0.2909 0.6182 0.1459
vt 0.2823 0.7946 0.1398
vt 0.3225 0.6209 0.1231
vt 0.3150 0.8005 0.0921
vt 0.3718 0.6220 0.0782
vt 0.3718 0.8029 0.0285
vt 0.0513 0.6209 0.1231
vt 0.0588 0.8005 0.0921
vt 0.0020 0.8029 0.0285
vt 0.0020 0.6220 0.0782
vt 0.0829 0.6182 0.1459
vt 0.0915 0.7946 0.1398
vt 0.1138 0.6156 0.0538
vt 0.1241 0.7888 0.0742
vt 0.2764 0.4449 0.0407
vt 0.1869 0.4262 -0.1485
vt 0.2929 0.4898 0.1485
vt 0.3159 0.5347 0.0950
vt 0.3718 0.5533 0.0100
vt 0.0579 0.5347 0.0950
vt 0.0020 0.5533 0.0100
vt 0.0809 0.4898 0.1485
vt 0.0975 0.4449 0.0407
vt 0.7836 0.7324 0.0000
vt 0.7706 0.8144 0.0000
vt 0.7838 0.8144 0.0000
vt 0.7929 0.7569 0.0000
vt 0.8149 0.6985 0.0000
vt 0.8149 0.7331 0.0000
vt 0.8463 0.7324 0.0000
vt 0.8370 0.7569 0.0000
vt 0.8593 0.8144 0.0000
vt 0.8461 0.8144 0.0000
vt 0.8463 0.8964 0.0000
vt 0.8370 0.8719 0.0000
vt 0.8149 0.9304 0.0000
vt 0.8149 0.8958 0.0000
vt 0.7836 0.8964 0.0000
vt 0.7929 0.8719 0.0000
vt 0.7953 0.8144 0.0000
vt 0.8010 0.7780 0.0000
vt 0.8149 0.7630 0.0000
vt 0.8289 0.7780 0.0000
vt 0.8346 0.8144 0.0000
vt 0.8289 0.8508 0.0000
vt 0.8149 0.8659 0.0000
vt 0.8010 0.8508 0.0000
vt 0.8149 0.8144 0.0000
vt 0.8596 0.4262 0.2175
vt 0.8900 0.6093 0.2803
vt 0.8358 0.5574 0.0035
vt 0.7550 0.5530 -0.2803
vt 0.6781 0.4806 0.0495
vt 0.9944 0.5641 0.0495
vt 0.8112 0.6061 0.1901
vt 0.7613 0.6574 0.0495
vt 0.8055 0.6814 0.0495
vt 0.2084 0.8605 0.0000
vt 0.0020 0.9173 0.0000
vt 0.0072 0.8200 0.0000
vt 0.5812 0.3812 0.1728
vt 0.4389 0.4060 0.1989
vt 0.4483 0.3246 -0.1989
vt 0.9260 0.1935 0.2651
vt 0.7615 0.0709 -0.2179
vt 0.8303 0.0020 -0.2651
vt 0.5325 0.8675 0.3069
vt 0.4273 0.9706 -0.3069
vt 0.3889 0.9003 0.1712
vt 0.8201 0.3226 0.3064
vt 0.7706 0.2570 0.0731
vt 0.7615 0.3278 0.4209
vt 0.7899 0.2106 0.0350
vt 0.8441 0.2318 -0.4209
vt 0.6781 0.8482 0.0000
vt 0.6892 0.7423 0.0000
vt 0.6948 0.7649 0.0000
vt 0.6862 0.8482 0.0000
vt 0.7158 0.6985 0.0000
vt 0.7158 0.7304 0.0000
vt 0.7424 0.7423 0.0000
vt 0.7368 0.7649 0.0000
vt 0.7535 0.8482 0.0000
vt 0.7454 0.8482 0.0000
vt 0.7424 0.9541 0.0000
vt 0.7368 0.9316 0.0000
vt 0.7158 0.9980 0.0000
vt 0.7158 0.9661 0.0000
vt 0.6892 0.9541 0.0000
vt 0.6948 0.9316 0.0000
vt 0.7084 0.8187 0.0000
vt 0.7053 0.8482 0.0000
vt 0.7158 0.8064 0.0000
vt 0.7232 0.8187 0.0000
vt 0.7263 0.8482 0.0000
vt 0.7232 0.8778 0.0000
vt 0.7158 0.8900 0.0000
vt 0.7084 0.8778 0.0000
vt 0.7111 0.8296 0.0000
vt 0.7092 0.8482 0.0000
vt 0.7158 0.8219 0.0000
vt 0.7205 0.8296 0.0000
vt 0.7224 0.8482 0.0000
vt 0.7205 0.8668 0.0000
vt 0.7158 0.8745 0.0000
vt 0.7111 0.8668 0.0000
# 148 texture coords

g limb_C_2
usemtl 09___Default
s 1
f 1/1/1 2/2/2 3/3/3 4/4/4 
f 5/5/5 6/6/6 2/2/2 1/1/1 
f 7/7/7 8/8/8 6/6/6 5/5/5 
f 9/9/9 10/10/10 8/11/8 7/12/7 
f 11/13/11 12/14/12 10/10/10 9/9/9 
f 13/15/13 14/16/14 12/14/12 11/13/11 
f 15/17/15 16/18/16 14/16/14 13/15/13 
f 4/19/4 3/20/3 16/18/16 15/17/15 
f 17/21/17 1/22/1 4/23/4 18/24/18 
f 19/25/19 5/26/5 1/22/1 17/21/17 
f 20/27/20 7/28/7 5/26/5 19/25/19 
f 21/29/21 9/30/9 7/31/7 20/32/20 
f 22/33/22 11/34/11 9/30/9 21/29/21 
f 23/35/23 13/36/13 11/34/11 22/33/22 
f 24/37/24 15/38/15 13/36/13 23/35/23 
f 18/24/18 4/23/4 15/38/15 24/37/24 
f 25/39/25 17/40/17 18/41/18 26/42/26 
f 27/43/27 19/44/19 17/40/17 25/39/25 
f 28/45/28 20/46/20 19/44/19 27/43/27 
f 29/47/29 21/48/21 20/46/20 28/45/28 
f 30/49/30 22/50/22 21/51/21 29/52/29 
f 31/53/31 23/54/23 22/50/22 30/49/30 
f 32/55/32 24/56/24 23/54/23 31/53/31 
f 26/42/26 18/41/18 24/56/24 32/55/32 
f 33/57/33 25/39/25 26/42/26 34/58/34 
f 35/59/35 27/43/27 25/39/25 33/57/33 
f 28/45/28 27/43/27 35/59/35 36/60/36 
f 37/61/37 29/47/29 28/45/28 36/60/36 
f 38/62/38 30/49/30 29/52/29 37/63/37 
f 39/64/39 31/53/31 30/49/30 38/62/38 
f 40/65/40 32/55/32 31/53/31 39/64/39 
f 34/58/34 26/42/26 32/55/32 40/65/40 
f 33/66/33 34/67/34 41/68/41 42/69/41 
f 35/70/35 33/66/33 42/69/41 43/71/42 
f 36/72/36 35/70/35 43/71/42 44/73/42 
f 37/74/37 36/72/36 44/73/42 45/75/41 
f 38/76/38 37/74/37 45/75/41 46/77/41 
f 39/78/39 38/76/38 46/77/41 47/79/42 
f 40/80/40 39/78/39 47/79/42 48/81/42 
f 34/67/34 40/80/40 48/81/42 41/68/41 
f 42/69/41 41/68/41 49/82/43 50/82/44 
f 42/69/41 50/82/44 51/83/42 
f 43/71/42 42/69/41 51/83/42 52/84/42 
f 44/73/42 43/71/42 52/84/42 53/85/42 
f 45/75/41 44/73/42 53/85/42 54/86/41 
f 46/77/41 45/75/41 54/86/41 55/87/41 
f 47/79/42 46/77/41 55/87/41 56/88/41 
f 48/81/42 47/79/42 56/88/41 57/89/41 
f 41/68/41 48/81/42 57/89/41 49/82/43 
f 57/89/41 56/88/41 58/90/41 49/82/43 
f 49/82/43 58/90/41 50/82/44 
f 55/87/41 54/86/41 58/90/41 
f 52/84/42 51/83/42 58/90/41 
f 58/90/41 51/83/42 50/82/44 
f 56/88/41 55/87/41 58/90/41 
f 53/85/42 52/84/42 58/90/41 54/86/41 
s 4
f 59/91/45 60/92/45 61/93/45 
s 2
f 59/91/46 61/93/46 62/94/46 
s 16
f 59/91/47 62/94/47 63/95/47 
s 32
f 59/91/48 63/96/48 60/92/48 
s 8
f 60/92/49 64/97/49 61/93/49 
f 61/93/49 64/97/49 62/94/50 
f 62/94/50 64/97/49 63/98/50 
f 63/99/50 64/97/49 60/92/49 
s 4
f 65/100/51 66/101/51 67/102/51 
s 2
f 65/103/52 67/104/52 68/105/52 
s 16
f 65/106/53 68/107/53 69/108/53 
s 32
f 65/109/54 69/110/54 66/111/54 
s 8
f 66/112/55 70/113/55 67/114/55 
f 67/114/55 70/113/55 68/115/55 
f 68/115/55 70/113/55 69/116/55 
f 69/116/55 70/113/55 66/112/55 
s off
f 3/117/56 2/118/56 71/119/56 72/120/56 
f 2/118/56 6/121/56 73/122/56 71/119/56 
f 6/121/56 8/123/56 74/124/56 73/122/56 
f 8/123/56 10/125/56 75/126/56 74/124/56 
f 10/125/56 12/127/56 76/128/56 75/126/56 
f 12/127/56 14/129/56 77/130/56 76/128/56 
f 14/129/56 16/131/56 78/132/56 77/130/56 
f 16/131/57 3/117/57 72/120/57 78/132/57 
f 72/120/56 71/119/56 79/133/56 80/134/56 
f 71/119/56 73/122/56 81/135/56 79/133/56 
f 73/122/56 74/124/56 82/136/56 81/135/56 
f 74/124/57 75/126/57 83/137/57 82/136/57 
f 75/126/57 76/128/57 84/138/57 83/137/57 
f 76/128/56 77/130/56 85/139/56 84/138/56 
f 77/130/56 78/132/56 86/140/56 85/139/56 
f 78/132/57 72/120/57 80/134/57 86/140/57 
f 80/134/57 79/133/57 87/141/57 88/142/57 
f 79/133/57 81/135/57 89/143/57 87/141/57 
f 81/135/56 82/136/56 90/144/56 89/143/56 
f 82/136/57 83/137/57 91/145/57 90/144/57 
f 83/137/57 84/138/57 92/146/57 91/145/57 
f 84/138/57 85/139/57 93/147/57 92/146/57 
f 85/139/57 86/140/57 94/148/57 93/147/57 
f 86/140/57 80/134/57 88/142/57 94/148/57 
f 89/143/57 90/144/57 91/145/57 93/147/57 
f 91/145/57 92/146/57 93/147/57 
f 93/147/57 94/148/57 88/142/57 89/143/57 
f 87/141/56 89/143/56 88/142/56 
# 76 polygons - 24 triangles

