# 3ds Max Wavefront OBJ Exporter v0.97b - (c)2007 guruware
# File Created: 11.11.2016 16:59:11

mtllib Limb_A_2.mtl

#
# object Limb_A_02
#

v  -42.1029 -16.9395 6.8515
v  -41.2290 -20.9770 2.4564
v  -26.8558 -19.6026 2.2609
v  -27.9579 -14.9242 7.3640
v  -41.7990 -19.9922 -2.6366
v  -27.5623 -18.4633 -3.6530
v  -43.4780 -14.5537 -5.4579
v  -29.6636 -12.1736 -6.9134
v  -45.2802 -7.8266 -4.3485
v  -31.9287 -4.4180 -5.6104
v  -46.1507 -3.7597 0.0568
v  -33.0308 0.2604 -0.5073
v  -45.5822 -4.7574 5.1703
v  -32.3242 -0.8789 5.4066
v  -43.9065 -10.2253 7.9814
v  -30.2230 -7.1686 8.6670
v  -7.8257 -17.7830 2.0020
v  -9.1310 -12.2420 8.0461
v  -8.6625 -16.4336 -5.0023
v  -11.1512 -8.9842 -8.8639
v  -13.8339 0.2015 -7.3206
v  -15.1392 5.7426 -1.2765
v  -14.3025 4.3931 5.7278
v  -11.8138 -3.0563 9.5894
v  11.2044 -15.9634 1.7432
v  9.6959 -9.5597 8.7283
v  10.2373 -14.4039 -6.3516
v  7.3612 -5.7947 -10.8144
v  4.2608 4.8210 -9.0308
v  2.7523 11.2247 -2.0458
v  3.7193 9.6652 6.0490
v  6.5955 1.0560 10.5118
v  30.2345 -14.1438 1.4844
v  28.5228 -6.8775 9.4104
v  29.1372 -12.3742 -7.7009
v  25.8736 -2.6053 -12.7648
v  22.3555 9.4405 -10.7410
v  20.6438 16.7069 -2.8150
v  21.7411 14.9373 6.3703
v  25.0047 5.1683 11.4342
v  45.4689 -12.6872 1.2772
v  43.7580 -4.7069 9.9624
v  44.2948 -10.7464 -8.7830
v  40.9132 -0.0141 -14.3494
v  37.2704 13.2482 -12.1507
v  35.5124 21.2628 -3.4543
v  36.6990 19.3130 6.6369
v  40.1275 8.5465 12.1919
v  -27.3645 -16.2351 1.3028
v  -46.3945 -18.0554 1.5588
v  -46.9718 -15.9514 3.5728
v  -28.1472 -13.2597 4.2600
v  -27.7908 -15.6526 -1.5330
v  -46.6846 -17.7020 -0.1573
v  -29.2735 -11.5518 -3.4577
v  -47.7823 -14.7537 -1.5052
v  -30.9044 -5.9208 -2.5315
v  -49.0042 -10.5241 -0.8123
v  -31.4972 -2.9071 0.4131
v  -49.3906 -8.3812 1.2116
v  -31.1070 -3.4886 3.2519
v  -49.1309 -8.7553 2.9234
v  -29.8027 -7.6276 5.1882
v  -48.2144 -11.7326 4.2647
v  -8.3344 -14.4154 1.0439
v  -9.3203 -10.5774 4.9422
v  -8.8910 -13.6229 -2.8823
v  -10.7611 -8.3623 -5.4081
v  -12.8097 -1.3013 -4.2417
v  -13.6057 2.5751 -0.3561
v  -13.0852 1.7835 3.5731
v  -11.3935 -3.5153 6.1106
v  10.6957 -12.5958 0.7851
v  9.5066 -7.8952 5.6243
v  10.0089 -11.5932 -4.2315
v  7.7513 -5.1729 -7.3586
v  5.2850 3.3182 -5.9519
v  4.2858 8.0572 -1.1254
v  4.9366 7.0555 3.8944
v  7.0157 0.5970 7.0330
v  29.7258 -10.7762 0.5263
v  28.3335 -5.2129 6.3064
v  28.9087 -9.5635 -5.5808
v  26.2637 -1.9835 -9.3091
v  23.3797 7.9377 -7.6621
v  22.1773 13.5394 -1.8946
v  22.9584 12.3276 4.2156
v  25.4250 4.7093 7.9554
v  48.7559 -8.9558 0.2704
v  47.1579 -2.5208 6.9939
v  47.8021 -7.5131 -6.9583
v  44.7724 1.2189 -11.2616
v  41.4796 12.5405 -9.3817
v  40.0707 19.0132 -2.6953
v  40.9825 17.5939 4.5446
v  43.8367 8.8139 8.8790
# 96 vertices

vn 0.0501 -0.4717 0.8801
vn 0.1129 -0.9539 0.2730
vn 0.1129 -0.9540 0.2729
vn 0.0501 -0.4719 0.8801
vn 0.0386 -0.7927 -0.6048
vn 0.0395 -0.7962 -0.6000
vn -0.1026 -0.1765 -0.9800
vn -0.2411 0.4174 -0.8788
vn -0.2429 0.4248 -0.8748
vn -0.3492 0.8933 -0.2733
vn -0.3495 0.8957 -0.2644
vn -0.2665 0.7341 0.6128
vn -0.2678 0.7378 0.6077
vn -0.0830 0.1236 0.9857
vn -0.0845 0.1292 0.9848
vn 0.1129 -0.9538 0.2735
vn 0.0502 -0.4722 0.8799
vn 0.0407 -0.8007 -0.5939
vn -0.1024 -0.1775 -0.9798
vn -0.2445 0.4316 -0.8710
vn -0.3499 0.8984 -0.2543
vn -0.2687 0.7406 0.6039
vn -0.0857 0.1338 0.9840
vn -0.1117 0.9493 -0.2895
vn -0.1126 0.9472 -0.2959
vn -0.0460 0.4374 -0.8979
vn -0.0468 0.4501 -0.8916
vn -0.0348 0.7807 0.6205
vn -0.0302 0.7654 0.6397
vn 0.1060 0.1593 0.9827
vn 0.1086 0.1497 0.9840
vn 0.2370 -0.4035 0.8864
vn 0.2330 -0.3902 0.8934
vn 0.3497 -0.8908 0.2807
vn 0.3495 -0.8855 0.2980
vn 0.2628 -0.7221 -0.6284
vn 0.2608 -0.7114 -0.6414
vn 0.0794 -0.1124 -0.9874
vn 0.0776 -0.1033 -0.9886
vn -0.1120 0.9503 -0.2859
vn -0.0476 0.4552 -0.8889
vn -0.0361 0.7845 0.6156
vn 0.1051 0.1631 0.9821
vn 0.2384 -0.4085 0.8837
vn 0.3498 -0.8919 0.2771
vn 0.2641 -0.7260 -0.6234
vn 0.0805 -0.1162 -0.9869
vn -0.1122 0.9510 -0.2836
vn -0.0480 0.4583 -0.8873
vn -0.0368 0.7868 0.6126
vn 0.1047 0.1656 0.9817
vn 0.2393 -0.4116 0.8821
vn 0.3497 -0.8926 0.2749
vn 0.2648 -0.7283 -0.6204
vn 0.0813 -0.1186 -0.9865
vn -0.1126 0.9514 -0.2818
vn -0.0483 0.4605 -0.8862
vn -0.0375 0.7884 0.6105
vn 0.1044 0.1674 0.9815
vn 0.2401 -0.4135 0.8809
vn 0.3498 -0.8931 0.2730
vn 0.2652 -0.7298 -0.6184
vn 0.0818 -0.1203 -0.9862
vn -0.1123 0.9521 -0.2796
vn -0.0488 0.4650 -0.8838
vn -0.0392 0.7959 0.6005
vn 0.1035 0.1722 0.9807
vn 0.2416 -0.4195 0.8777
vn 0.3498 -0.8962 0.2622
vn 0.2657 -0.7330 -0.6144
vn 0.0827 -0.1237 -0.9857
vn -0.5979 -0.7797 0.2069
vn -0.6265 -0.4712 0.6148
vn -0.6237 -0.4669 0.6207
vn -0.5902 -0.7801 0.2253
vn -0.6392 -0.6883 -0.3738
vn -0.6396 -0.6843 -0.3806
vn -0.7252 -0.2725 -0.6519
vn -0.7240 -0.2691 -0.6547
vn -0.8138 0.1450 -0.5780
vn -0.8039 0.1316 -0.5953
vn -0.8771 0.4510 -0.1526
vn -0.8788 0.4420 -0.1713
vn -0.8185 0.3485 0.4319
vn -0.8207 0.3183 0.4507
vn -0.7027 -0.0639 0.6951
vn -0.7046 -0.0875 0.6910
vn 0.7809 -0.1625 0.6173
vn 0.8241 -0.5357 0.1689
vn 0.8266 -0.5327 0.1664
vn 0.7873 -0.1505 0.6124
vn 0.7727 -0.3951 -0.4726
vn 0.7633 -0.4034 -0.4806
vn 0.6853 0.0585 -0.7125
vn 0.6766 0.0573 -0.7208
vn 0.6063 0.4688 -0.6362
vn 0.6092 0.4681 -0.6339
vn 0.5438 0.8147 -0.2192
vn 0.5487 0.8132 -0.2132
vn 0.6009 0.7074 0.3999
vn 0.5988 0.7080 0.4020
vn 0.7090 0.2767 0.6677
vn 0.7090 0.2809 0.6660
# 103 vertex normals

vt 0.4362 0.1216 0.0000
vt 0.4634 0.1270 0.0000
vt 0.4552 0.1979 0.0000
vt 0.4236 0.1912 0.0000
vt 0.4948 0.1309 0.0000
vt 0.4918 0.2015 0.0000
vt 0.2523 0.0540 0.0000
vt 0.2739 0.0609 0.0000
vt 0.2361 0.1181 0.0000
vt 0.2106 0.1109 0.0000
vt 0.3089 0.0832 0.0000
vt 0.2772 0.1431 0.0000
vt 0.3282 0.1049 0.0000
vt 0.3039 0.1601 0.0000
vt 0.3592 0.1189 0.0000
vt 0.3359 0.1817 0.0000
vt 0.3948 0.1125 0.0000
vt 0.3759 0.1799 0.0000
vt 0.4442 0.2932 0.0000
vt 0.4069 0.2839 0.0000
vt 0.4878 0.2952 0.0000
vt 0.1855 0.1949 0.0000
vt 0.1552 0.1863 0.0000
vt 0.2342 0.2244 0.0000
vt 0.2640 0.2486 0.0000
vt 0.3064 0.2634 0.0000
vt 0.3504 0.2705 0.0000
vt 0.4334 0.3866 0.0000
vt 0.3903 0.3766 0.0000
vt 0.4838 0.3889 0.0000
vt 0.1348 0.2716 0.0000
vt 0.0998 0.2618 0.0000
vt 0.1912 0.3057 0.0000
vt 0.2277 0.3289 0.0000
vt 0.2757 0.3484 0.0000
vt 0.3249 0.3611 0.0000
vt 0.4226 0.4799 0.0000
vt 0.3736 0.4693 0.0000
vt 0.4798 0.4826 0.0000
vt 0.0842 0.3483 0.0000
vt 0.0444 0.3373 0.0000
vt 0.1482 0.3869 0.0000
vt 0.1895 0.4137 0.0000
vt 0.2434 0.4380 0.0000
vt 0.2994 0.4517 0.0000
vt 0.4139 0.5549 0.0000
vt 0.3601 0.5443 0.0000
vt 0.4766 0.5577 0.0000
vt 0.0431 0.4107 0.0000
vt 0.0000 0.3978 0.0000
vt 0.1127 0.4539 0.0000
vt 0.1580 0.4847 0.0000
vt 0.2172 0.5104 0.0000
vt 0.2785 0.5262 0.0000
vt 0.4414 0.7019 0.0000
vt 0.3496 0.7222 0.0000
vt 0.3448 0.7087 0.0000
vt 0.4348 0.6827 0.0000
vt 0.4454 0.7190 0.0000
vt 0.3531 0.7323 0.0000
vt 0.3520 0.7216 0.0000
vt 0.4432 0.7015 0.0000
vt 0.4409 0.7348 0.0000
vt 0.3497 0.7435 0.0000
vt 0.4404 0.7702 0.0000
vt 0.3480 0.7702 0.0000
vt 0.3464 0.7439 0.0000
vt 0.4383 0.7352 0.0000
vt 0.4426 0.7902 0.0000
vt 0.3497 0.7844 0.0000
vt 0.4258 0.6212 0.0000
vt 0.3442 0.6605 0.0000
vt 0.3384 0.6511 0.0000
vt 0.4163 0.6056 0.0000
vt 0.4231 0.6493 0.0000
vt 0.3361 0.6836 0.0000
vt 0.3303 0.6671 0.0000
vt 0.4150 0.6264 0.0000
vt 0.5331 0.6816 0.0000
vt 0.5248 0.6568 0.0000
vt 0.5376 0.7055 0.0000
vt 0.5345 0.6813 0.0000
vt 0.5321 0.7261 0.0000
vt 0.5328 0.7703 0.0000
vt 0.5303 0.7264 0.0000
vt 0.5355 0.7962 0.0000
vt 0.5074 0.5819 0.0000
vt 0.4943 0.5603 0.0000
vt 0.5101 0.6149 0.0000
vt 0.4996 0.5856 0.0000
vt 0.6249 0.6614 0.0000
vt 0.6147 0.6309 0.0000
vt 0.6299 0.6920 0.0000
vt 0.6257 0.6612 0.0000
vt 0.6233 0.7174 0.0000
vt 0.6253 0.7704 0.0000
vt 0.6222 0.7175 0.0000
vt 0.6284 0.8021 0.0000
vt 0.5889 0.5426 0.0000
vt 0.5724 0.5150 0.0000
vt 0.5971 0.5805 0.0000
vt 0.5843 0.5448 0.0000
vt 0.7168 0.6410 0.0000
vt 0.7047 0.6050 0.0000
vt 0.7221 0.6786 0.0000
vt 0.7143 0.7087 0.0000
vt 0.7177 0.7704 0.0000
vt 0.7213 0.8080 0.0000
vt 0.6697 0.5037 0.0000
vt 0.6504 0.4697 0.0000
vt 0.6841 0.5461 0.0000
vt 0.8084 0.6208 0.0000
vt 0.7946 0.5790 0.0000
vt 0.8144 0.6653 0.0000
vt 0.8059 0.7000 0.0000
vt 0.8102 0.7704 0.0000
vt 0.8142 0.8139 0.0000
vt 0.7528 0.4637 0.0000
vt 0.7283 0.4242 0.0000
vt 0.7712 0.5118 0.0000
vt 0.4357 0.0585 0.0000
vt 0.4153 0.0751 0.0000
vt 0.3961 0.0641 0.0000
vt 0.4070 0.0559 0.0000
vt 0.3780 0.0075 0.0000
vt 0.4096 0.0225 0.0000
vt 0.3926 0.0332 0.0000
vt 0.3819 0.0282 0.0000
vt 0.3410 0.0253 0.0000
vt 0.3627 0.0385 0.0000
vt 0.3201 0.0656 0.0000
vt 0.3496 0.0638 0.0000
vt 0.3520 0.0833 0.0000
vt 0.3627 0.0888 0.0000
vt 0.3838 0.0999 0.0000
vt 0.3760 0.0793 0.0000
vt 0.3920 0.5716 0.0000
vt 0.3487 0.5620 0.0000
vt 0.0713 0.7337 0.0000
vt 0.0097 0.6842 0.0000
vt 0.0350 0.6687 0.0000
vt 0.0792 0.7045 0.0000
vt 0.0093 0.5913 0.0000
vt 0.0362 0.5939 0.0000
vt 0.0707 0.5093 0.0000
vt 0.0885 0.5239 0.0000
vt 0.1565 0.5058 0.0000
vt 0.1988 0.5271 0.0000
vt 0.2790 0.5454 0.0000
vt 0.2287 0.5328 0.0000
# 150 texture coords

g Limb_A_02
usemtl wire_166229229
s 8
f 1/1/1 2/2/2 3/3/3 4/4/4 
f 2/2/2 5/5/5 6/6/6 3/3/3 
f 5/7/5 7/8/7 8/9/7 6/10/6 
f 7/8/7 9/11/8 10/12/9 8/9/7 
f 9/11/8 11/13/10 12/14/11 10/12/9 
f 11/13/10 13/15/12 14/16/13 12/14/11 
f 13/15/12 15/17/14 16/18/15 14/16/13 
f 15/17/14 1/1/1 4/4/4 16/18/15 
f 4/4/4 3/3/3 17/19/3 18/20/4 
f 3/3/3 6/6/6 19/21/6 17/19/3 
f 6/10/6 8/9/7 20/22/7 19/23/6 
f 8/9/7 10/12/9 21/24/9 20/22/7 
f 10/12/9 12/14/11 22/25/11 21/24/9 
f 12/14/11 14/16/13 23/26/13 22/25/11 
f 14/16/13 16/18/15 24/27/15 23/26/13 
f 16/18/15 4/4/4 18/20/4 24/27/15 
f 18/20/4 17/19/3 25/28/3 26/29/4 
f 17/19/3 19/21/6 27/30/6 25/28/3 
f 19/23/6 20/22/7 28/31/7 27/32/6 
f 20/22/7 21/24/9 29/33/9 28/31/7 
f 21/24/9 22/25/11 30/34/11 29/33/9 
f 22/25/11 23/26/13 31/35/13 30/34/11 
f 23/26/13 24/27/15 32/36/15 31/35/13 
f 24/27/15 18/20/4 26/29/4 32/36/15 
f 26/29/4 25/28/3 33/37/3 34/38/4 
f 25/28/3 27/30/6 35/39/6 33/37/3 
f 27/32/6 28/31/7 36/40/7 35/41/6 
f 28/31/7 29/33/9 37/42/9 36/40/7 
f 29/33/9 30/34/11 38/43/11 37/42/9 
f 30/34/11 31/35/13 39/44/13 38/43/11 
f 31/35/13 32/36/15 40/45/15 39/44/13 
f 32/36/15 26/29/4 34/38/4 40/45/15 
f 34/38/4 33/37/3 41/46/16 42/47/17 
f 33/37/3 35/39/6 43/48/18 41/46/16 
f 35/41/6 36/40/7 44/49/19 43/50/18 
f 36/40/7 37/42/9 45/51/20 44/49/19 
f 37/42/9 38/43/11 46/52/21 45/51/20 
f 38/43/11 39/44/13 47/53/22 46/52/21 
f 39/44/13 40/45/15 48/54/23 47/53/22 
f 40/45/15 34/38/4 42/47/17 48/54/23 
f 49/55/24 50/56/25 51/57/26 52/58/27 
f 53/59/28 54/60/29 50/61/25 49/62/24 
f 55/63/30 56/64/31 54/60/29 53/59/28 
f 57/65/32 58/66/33 56/67/31 55/68/30 
f 59/69/34 60/70/35 58/66/33 57/65/32 
f 61/71/36 62/72/37 60/73/35 59/74/34 
f 63/75/38 64/76/39 62/77/37 61/78/36 
f 52/58/27 51/57/26 64/76/39 63/75/38 
f 65/79/40 49/55/24 52/58/27 66/80/41 
f 67/81/42 53/59/28 49/62/24 65/82/40 
f 68/83/43 55/63/30 53/59/28 67/81/42 
f 69/84/44 57/65/32 55/68/30 68/85/43 
f 70/86/45 59/69/34 57/65/32 69/84/44 
f 71/87/46 61/71/36 59/74/34 70/88/45 
f 72/89/47 63/75/38 61/78/36 71/90/46 
f 66/80/41 52/58/27 63/75/38 72/89/47 
f 73/91/48 65/79/40 66/80/41 74/92/49 
f 75/93/50 67/81/42 65/82/40 73/94/48 
f 76/95/51 68/83/43 67/81/42 75/93/50 
f 77/96/52 69/84/44 68/85/43 76/97/51 
f 78/98/53 70/86/45 69/84/44 77/96/52 
f 79/99/54 71/87/46 70/88/45 78/100/53 
f 80/101/55 72/89/47 71/90/46 79/102/54 
f 74/92/49 66/80/41 72/89/47 80/101/55 
f 81/103/56 73/91/48 74/92/49 82/104/57 
f 83/105/58 75/93/50 73/94/48 81/103/56 
f 84/106/59 76/95/51 75/93/50 83/105/58 
f 85/107/60 77/96/52 76/97/51 84/106/59 
f 86/108/61 78/98/53 77/96/52 85/107/60 
f 87/109/62 79/99/54 78/100/53 86/110/61 
f 88/111/63 80/101/55 79/102/54 87/109/62 
f 82/104/57 74/92/49 80/101/55 88/111/63 
f 89/112/64 81/103/56 82/104/57 90/113/65 
f 91/114/66 83/105/58 81/103/56 89/112/64 
f 92/115/67 84/106/59 83/105/58 91/114/66 
f 93/116/68 85/107/60 84/106/59 92/115/67 
f 94/117/69 86/108/61 85/107/60 93/116/68 
f 95/118/70 87/109/62 86/110/61 94/119/69 
f 96/120/71 88/111/63 87/109/62 95/118/70 
f 90/113/65 82/104/57 88/111/63 96/120/71 
s 1
f 2/121/72 1/122/73 51/123/74 50/124/75 
f 5/125/76 2/126/72 50/127/75 54/128/77 
f 7/129/78 5/125/76 54/128/77 56/130/79 
f 9/131/80 7/129/78 56/130/79 58/132/81 
f 11/13/82 9/131/80 58/132/81 60/133/83 
f 13/15/84 11/13/82 60/133/83 62/134/85 
f 15/135/86 13/15/84 62/134/85 64/136/87 
f 1/122/73 15/135/86 64/136/87 51/123/74 
f 42/47/88 41/46/89 89/137/90 90/138/91 
f 41/139/89 43/140/92 91/141/93 89/142/90 
f 43/140/92 44/143/94 92/144/95 91/141/93 
f 44/143/94 45/145/96 93/146/97 92/144/95 
f 45/145/96 46/52/98 94/147/99 93/146/97 
f 46/52/98 47/53/100 95/148/101 94/147/99 
f 47/53/100 48/54/102 96/149/103 95/150/101 
f 48/54/102 42/47/88 90/138/91 96/149/103 
# 96 polygons

