# 3ds Max Wavefront OBJ Exporter v0.97b - (c)2007 guruware
# File Created: 11.11.2016 22:53:36

mtllib Limb_D_4B.mtl

#
# object Limb_D_4B
#

v  8.8688 0.6714 -0.7381
v  9.0859 1.2210 -0.4562
v  9.1574 1.4358 -0.0001
v  9.0558 1.2336 0.4561
v  8.8201 0.6918 0.7381
v  8.5402 0.0172 0.7381
v  8.3230 -0.5325 0.4562
v  8.2516 -0.7473 0.0001
v  8.3531 -0.5451 -0.4561
v  8.5889 -0.0032 -0.7381
v  8.4869 -0.3097 -1.3889
v  8.0433 -1.3293 -0.8583
v  4.8611 -0.0265 -0.7686
v  5.0775 0.8862 -1.2194
v  8.0771 -1.1484 0.0001
v  4.9275 0.2519 -0.0419
v  7.9867 -1.3056 0.8585
v  4.8320 -0.0124 0.6833
v  8.3953 -0.2712 1.3890
v  5.0305 0.9090 1.1299
v  8.9220 0.9982 1.3889
v  5.2870 2.0424 1.1274
v  9.3656 2.0178 0.8583
v  5.5034 2.9551 0.6767
v  9.2793 2.0455 -0.0001
v  5.3334 3.0428 -0.0501
v  9.4223 1.9941 -0.8585
v  5.5325 2.9410 -0.7753
v  9.0137 0.9598 -1.3890
v  5.3340 2.0196 -1.2219
v  1.4600 0.7231 -0.6583
v  1.5021 1.4876 -1.0276
v  1.2830 0.7672 -0.0639
v  1.4522 0.7324 0.5286
v  1.4896 1.5027 0.8929
v  1.5387 2.4513 0.8898
v  1.5808 3.2158 0.5205
v  1.5998 3.5043 -0.0739
v  1.5885 3.2065 -0.6663
v  1.5512 2.4362 -1.0306
v  -2.0627 0.8824 -0.5258
v  -2.1357 1.4726 -0.8125
v  -2.0249 0.8198 -0.0642
v  -2.0562 0.8901 0.3959
v  -2.1251 1.4849 0.6788
v  -2.2127 2.2174 0.6765
v  -2.2857 2.8075 0.3897
v  -2.3160 3.0300 -0.0718
v  -2.2922 2.7999 -0.5320
v  -2.2233 2.2050 -0.8149
v  -5.6038 0.4318 -0.3702
v  -5.7295 0.8369 -0.5740
v  -5.5507 0.2798 -0.0417
v  -5.5904 0.4390 0.2862
v  -5.7078 0.8486 0.4882
v  -5.8580 1.3521 0.4871
v  -5.9836 1.7572 0.2834
v  -6.0367 1.9091 -0.0452
v  -5.9970 1.7499 -0.3731
v  -5.8796 1.3403 -0.5750
v  -9.0567 -0.6305 -0.1915
v  -9.1734 -0.4055 -0.3123
v  -9.0073 -0.7140 0.0041
v  -9.0438 -0.6242 0.1997
v  -9.1524 -0.3953 0.3206
v  -9.2917 -0.1148 0.3207
v  -9.4083 0.1102 0.1998
v  -9.4578 0.1938 0.0042
v  -9.4212 0.1039 -0.1914
v  -9.3126 -0.1249 -0.3123
v  -10.2424 -0.8627 -0.0663
v  -10.1528 -1.0433 -0.0663
v  -10.0947 -1.1553 -0.0061
v  -10.0921 -1.1597 0.0042
v  -10.0940 -1.1550 0.0144
v  -10.1481 -1.0411 0.0746
v  -10.2377 -0.8605 0.0746
v  -10.2958 -0.7484 0.0144
v  -10.2984 -0.7440 0.0041
v  -10.2965 -0.7487 -0.0061
# 80 vertices

vn 0.9231 -0.3830 0.0358
vn -0.1137 -0.1818 -0.9767
vn -0.3662 -0.8112 -0.4560
vn -0.2707 -0.8810 -0.3879
vn -0.1000 -0.1935 -0.9760
vn -0.3916 -0.9201 -0.0087
vn -0.2801 -0.9600 0.0059
vn -0.3586 -0.8180 0.4498
vn -0.3059 -0.8705 0.3855
vn -0.1350 -0.1748 0.9753
vn -0.1177 -0.1852 0.9756
vn 0.0039 0.2514 0.9679
vn -0.0177 0.2445 0.9695
vn 0.1800 0.8245 0.5365
vn 0.1241 0.8219 0.5560
vn 0.2410 0.9705 -0.0090
vn 0.1562 0.9875 -0.0218
vn 0.1845 0.8118 -0.5540
vn 0.1264 0.8196 -0.5588
vn 0.0239 0.2402 -0.9704
vn 0.0000 0.2349 -0.9720
vn -0.1337 -0.8344 -0.5347
vn -0.0716 -0.2087 -0.9754
vn -0.0873 -0.9960 0.0213
vn -0.1197 -0.8440 0.5229
vn -0.0779 -0.2016 0.9764
vn -0.0530 0.2386 0.9697
vn -0.0395 0.7162 0.6968
vn -0.0130 0.9997 -0.0182
vn -0.0185 0.7145 -0.6994
vn -0.0465 0.2308 -0.9719
vn 0.0166 -0.7961 -0.6049
vn -0.0411 -0.2186 -0.9749
vn 0.0494 -0.9986 0.0183
vn 0.0204 -0.7961 0.6048
vn -0.0360 -0.2110 0.9768
vn -0.0867 0.2267 0.9701
vn -0.1567 0.6991 0.6976
vn -0.2035 0.9790 -0.0069
vn -0.1599 0.6908 -0.7051
vn -0.0917 0.2189 -0.9714
vn 0.1144 -0.6890 -0.7157
vn -0.0094 -0.2230 -0.9748
vn 0.2029 -0.9791 0.0119
vn 0.1358 -0.6828 0.7178
vn 0.0070 -0.2133 0.9770
vn -0.1179 0.2091 0.9708
vn -0.2691 0.6618 0.6997
vn -0.3681 0.9298 -0.0035
vn -0.2808 0.6535 -0.7029
vn -0.1343 0.1996 -0.9706
vn 0.1711 -0.6746 -0.7181
vn 0.0081 -0.2255 -0.9742
vn 0.2767 -0.9610 -0.0010
vn 0.1876 -0.6688 0.7194
vn 0.0298 -0.2157 0.9760
vn -0.1303 0.1931 0.9725
vn -0.3219 0.6322 0.7047
vn -0.4486 0.8937 -0.0065
vn -0.3356 0.6205 -0.7088
vn -0.1513 0.1817 -0.9716
vn -0.8952 -0.4442 0.0367
vn -0.8951 -0.4443 0.0367
vn -0.8952 -0.4442 0.0368
vn -0.8952 -0.4442 0.0365
vn -0.8952 -0.4441 0.0369
vn 0.9526 -0.2839 0.1093
vn 0.9576 -0.2854 -0.0388
vn 0.9203 -0.3900 0.0304
vn 0.9200 -0.3898 0.0411
vn 0.0658 -0.4455 -0.8929
vn 0.3411 -0.8302 -0.4409
vn 0.3405 -0.8287 0.4442
vn 0.0654 -0.4417 0.8948
vn -0.1829 -0.0909 0.9789
vn -0.4228 0.2489 0.8714
vn -0.6730 0.6033 0.4280
vn -0.6801 0.6097 -0.4071
vn -0.4303 0.2535 -0.8664
vn -0.1858 -0.0921 -0.9783
# 80 vertex normals

vt 0.1240 0.5204 0.0000
vt 0.1317 0.5078 0.0000
vt 0.1442 0.5040 0.0000
vt 0.1563 0.5109 0.0000
vt 0.1606 0.5253 0.0000
vt 0.1570 0.5421 0.0000
vt 0.1474 0.5549 0.0000
vt 0.1350 0.5584 0.0000
vt 0.1253 0.5511 0.0000
vt 0.1214 0.5366 0.0000
vt 0.0616 0.4602 0.0000
vt 0.0370 0.4450 0.0000
vt 0.0750 0.3758 0.0000
vt 0.0955 0.3847 0.0000
vt 0.1107 0.5666 0.0000
vt 0.1324 0.5689 0.0000
vt 0.1163 0.6460 0.0000
vt 0.1014 0.6434 0.0000
vt 0.1538 0.5755 0.0000
vt 0.1302 0.6493 0.0000
vt 0.2634 0.4637 0.0000
vt 0.2357 0.4736 0.0000
vt 0.2147 0.3951 0.0000
vt 0.2393 0.3894 0.0000
vt 0.2030 0.4846 0.0000
vt 0.1883 0.4004 0.0000
vt 0.1697 0.4929 0.0000
vt 0.1661 0.4036 0.0000
vt 0.1450 0.4899 0.0000
vt 0.1534 0.3985 0.0000
vt 0.1217 0.4879 0.0000
vt 0.1393 0.4005 0.0000
vt 0.0915 0.4759 0.0000
vt 0.1189 0.3938 0.0000
vt 0.1038 0.3001 0.0000
vt 0.1210 0.3050 0.0000
vt 0.0990 0.7279 0.0000
vt 0.0886 0.7213 0.0000
vt 0.1118 0.7264 0.0000
vt 0.2033 0.3134 0.0000
vt 0.2231 0.3111 0.0000
vt 0.1833 0.3147 0.0000
vt 0.1688 0.3153 0.0000
vt 0.1614 0.3151 0.0000
vt 0.1539 0.3135 0.0000
vt 0.1398 0.3099 0.0000
vt 0.1261 0.2208 0.0000
vt 0.1405 0.2232 0.0000
vt 0.0813 0.8011 0.0000
vt 0.0718 0.7993 0.0000
vt 0.0916 0.8040 0.0000
vt 0.1988 0.2300 0.0000
vt 0.2134 0.2302 0.0000
vt 0.1844 0.2289 0.0000
vt 0.1746 0.2280 0.0000
vt 0.1708 0.2275 0.0000
vt 0.1665 0.2268 0.0000
vt 0.1558 0.2253 0.0000
vt 0.1438 0.1396 0.0000
vt 0.1551 0.1404 0.0000
vt 0.0584 0.8790 0.0000
vt 0.0493 0.8765 0.0000
vt 0.0673 0.8816 0.0000
vt 0.2018 0.1461 0.0000
vt 0.2111 0.1477 0.0000
vt 0.1924 0.1439 0.0000
vt 0.1851 0.1422 0.0000
vt 0.1812 0.1413 0.0000
vt 0.1761 0.1408 0.0000
vt 0.1670 0.1406 0.0000
vt 0.1562 0.0571 0.0000
vt 0.1643 0.0568 0.0000
vt 0.0311 0.9563 0.0000
vt 0.0243 0.9541 0.0000
vt 0.0365 0.9579 0.0000
vt 0.2148 0.0632 0.0000
vt 0.2189 0.0647 0.0000
vt 0.2082 0.0609 0.0000
vt 0.2007 0.0586 0.0000
vt 0.1930 0.0564 0.0000
vt 0.1820 0.0559 0.0000
vt 0.1725 0.0561 0.0000
vt 0.1807 0.0266 0.0000
vt 0.1826 0.0221 0.0000
vt 0.1856 0.0201 0.0000
vt 0.1862 0.0200 0.0000
vt 0.1865 0.0200 0.0000
vt 0.1888 0.0223 0.0000
vt 0.1904 0.0267 0.0000
vt 0.1902 0.0299 0.0000
vt 0.1903 0.0303 0.0000
vt 0.1815 0.0292 0.0000
vt 0.1054 0.5402 0.0000
vt 0.1098 0.5108 0.0000
vt 0.1772 0.5205 0.0000
vt 0.1705 0.5521 0.0000
vt 0.1583 0.0300 0.0000
vt 0.1627 0.0300 0.0000
vt 0.0212 0.9796 0.0000
vt 0.0200 0.9799 0.0000
vt 0.0210 0.9800 0.0000
vt 0.2229 0.0370 0.0000
vt 0.2272 0.0387 0.0000
vt 0.2140 0.0343 0.0000
vt 0.2026 0.0318 0.0000
vt 0.1707 0.0294 0.0000
# 106 texture coords

g Limb_D_4B
usemtl wire_086086086
s 1
f 1/1/1 2/2/1 3/3/1 4/4/1 5/5/1 6/6/1 7/7/1 8/8/1 9/9/1 10/10/1 
s 8
f 11/11/2 12/12/3 13/13/4 14/14/5 
f 12/15/3 15/16/6 16/17/7 13/18/4 
f 15/16/6 17/19/8 18/20/9 16/17/7 
f 17/21/8 19/22/10 20/23/11 18/24/9 
f 19/22/10 21/25/12 22/26/13 20/23/11 
f 21/25/12 23/27/14 24/28/15 22/26/13 
f 23/27/14 25/29/16 26/30/17 24/28/15 
f 25/29/16 27/31/18 28/32/19 26/30/17 
f 27/31/18 29/33/20 30/34/21 28/32/19 
f 29/33/20 11/11/2 14/14/5 30/34/21 
f 14/14/5 13/13/4 31/35/22 32/36/23 
f 13/18/4 16/17/7 33/37/24 31/38/22 
f 16/17/7 18/20/9 34/39/25 33/37/24 
f 18/24/9 20/23/11 35/40/26 34/41/25 
f 20/23/11 22/26/13 36/42/27 35/40/26 
f 22/26/13 24/28/15 37/43/28 36/42/27 
f 24/28/15 26/30/17 38/44/29 37/43/28 
f 26/30/17 28/32/19 39/45/30 38/44/29 
f 28/32/19 30/34/21 40/46/31 39/45/30 
f 30/34/21 14/14/5 32/36/23 40/46/31 
f 32/36/23 31/35/22 41/47/32 42/48/33 
f 31/38/22 33/37/24 43/49/34 41/50/32 
f 33/37/24 34/39/25 44/51/35 43/49/34 
f 34/41/25 35/40/26 45/52/36 44/53/35 
f 35/40/26 36/42/27 46/54/37 45/52/36 
f 36/42/27 37/43/28 47/55/38 46/54/37 
f 37/43/28 38/44/29 48/56/39 47/55/38 
f 38/44/29 39/45/30 49/57/40 48/56/39 
f 39/45/30 40/46/31 50/58/41 49/57/40 
f 40/46/31 32/36/23 42/48/33 50/58/41 
f 42/48/33 41/47/32 51/59/42 52/60/43 
f 41/50/32 43/49/34 53/61/44 51/62/42 
f 43/49/34 44/51/35 54/63/45 53/61/44 
f 44/53/35 45/52/36 55/64/46 54/65/45 
f 45/52/36 46/54/37 56/66/47 55/64/46 
f 46/54/37 47/55/38 57/67/48 56/66/47 
f 47/55/38 48/56/39 58/68/49 57/67/48 
f 48/56/39 49/57/40 59/69/50 58/68/49 
f 49/57/40 50/58/41 60/70/51 59/69/50 
f 50/58/41 42/48/33 52/60/43 60/70/51 
f 52/60/43 51/59/42 61/71/52 62/72/53 
f 51/62/42 53/61/44 63/73/54 61/74/52 
f 53/61/44 54/63/45 64/75/55 63/73/54 
f 54/65/45 55/64/46 65/76/56 64/77/55 
f 55/64/46 56/66/47 66/78/57 65/76/56 
f 56/66/47 57/67/48 67/79/58 66/78/57 
f 57/67/48 58/68/49 68/80/59 67/79/58 
f 58/68/49 59/69/50 69/81/60 68/80/59 
f 59/69/50 60/70/51 70/82/61 69/81/60 
f 60/70/51 52/60/43 62/72/53 70/82/61 
s 1
f 71/83/62 72/84/63 73/85/64 74/86/62 75/87/65 76/88/62 77/89/62 78/90/64 79/91/66 80/92/64 
s off
f 12/15/1 11/93/1 10/10/1 9/9/1 
f 11/93/1 29/94/1 1/1/1 10/10/1 
f 29/94/1 27/31/1 2/2/1 1/1/1 
f 27/31/67 25/29/67 3/3/67 2/2/67 
f 25/29/68 23/27/68 4/4/68 3/3/68 
f 23/27/1 21/95/1 5/5/1 4/4/1 
f 21/95/1 19/96/1 6/6/1 5/5/1 
f 19/96/1 17/19/1 7/7/1 6/6/1 
f 17/19/69 15/16/69 8/8/69 7/7/69 
f 15/16/70 12/15/70 9/9/70 8/8/70 
f 62/72/71 61/71/71 73/97/71 72/98/71 
f 61/74/72 63/73/72 74/99/72 73/100/72 
f 63/73/73 64/75/73 75/101/73 74/99/73 
f 64/77/74 65/76/74 76/102/74 75/103/74 
f 65/76/75 66/78/75 77/104/75 76/102/75 
f 66/78/76 67/79/76 78/105/76 77/104/76 
f 67/79/77 68/80/77 79/91/77 78/105/77 
f 68/80/78 69/81/78 80/92/78 79/91/78 
f 69/81/79 70/82/79 71/106/79 80/92/79 
f 70/82/80 62/72/80 72/98/80 71/106/80 
# 72 polygons

