# 3ds Max Wavefront OBJ Exporter v0.97b - (c)2007 guruware
# File Created: 11.11.2016 22:36:47

mtllib Limb_D_3.mtl

#
# object Limb_D_3
#

v  -8.5568 -3.9269 4.7137
v  -11.0606 -3.1447 -0.2796
v  9.1207 -4.3101 -0.3110
v  6.8904 -4.9358 4.1174
v  -7.4596 -3.6351 -3.6981
v  6.4544 -4.3304 -4.8583
v  -11.3986 4.5087 6.1341
v  6.9310 4.2488 5.6785
v  9.1057 4.6702 1.0633
v  -11.0471 5.3165 1.1090
v  6.4926 3.8754 -3.6309
v  -8.6851 3.4254 -4.2927
v  -8.1606 -4.6162 10.4922
v  8.3292 -4.5520 10.3829
v  11.0552 -3.6712 11.1058
v  -10.8336 -3.4195 10.6977
v  8.3292 -2.1915 10.8781
v  -8.1606 -2.2633 10.9849
v  16.8061 -1.3905 1.7133
v  16.8062 -1.3930 0.1266
v  17.1445 -0.0064 0.2715
v  17.0034 -0.2505 1.9535
v  16.2801 -1.0141 -1.3752
v  16.6089 0.1208 -1.3360
v  16.2801 1.2126 -1.1130
v  16.8062 1.3374 0.4893
v  16.8061 0.8905 2.1281
v  3.9772 -3.2096 -10.0566
v  -6.2574 -4.3138 -11.1673
v  -7.2127 -3.2370 -11.1805
v  5.0740 -2.1294 -10.2440
v  -6.2574 -1.9457 -10.8827
v  3.9772 -0.9750 -9.8235
v  -15.7293 -2.5206 -5.4325
v  -16.2721 -2.1341 -0.1613
v  -16.2721 -0.6314 0.0354
v  -15.3998 -1.7356 -6.9527
v  -16.8149 -2.4785 5.0079
v  -17.1445 -1.7162 6.7399
v  -16.8149 -0.0668 5.4778
v  -16.2721 0.8818 0.3081
v  -15.7293 -0.0215 -5.0691
v  -14.3666 -4.7201 6.8988
v  -16.0053 -3.8058 -0.3772
v  -14.1373 -4.7812 -7.9049
v  11.3147 -3.0339 -5.8350
v  14.4943 -3.1032 -0.0601
v  13.9196 -4.1584 5.6807
v  -12.3057 0.9183 8.8208
v  13.9196 1.5531 7.2442
v  14.4943 3.2128 1.1396
v  11.3147 2.3436 -5.1841
v  -12.0764 1.0787 -7.3902
v  -16.0053 2.7984 0.9349
v  15.9587 -1.5885 6.8135
v  -14.3584 -3.5716 9.1821
v  15.7914 -2.4377 0.0191
v  16.3831 -2.3241 2.8999
v  15.1996 -1.6559 -2.6818
v  12.5304 -0.2952 -5.8092
v  15.0023 0.0822 -3.4272
v  15.1996 1.8311 -2.2439
v  15.7914 2.3430 0.8491
v  16.3831 1.2778 3.6851
v  16.5804 -0.7571 4.2366
v  -9.3980 -5.0409 -11.1289
v  6.7137 -3.1870 -8.8556
v  -14.0206 -2.9095 -10.1376
v  -12.0833 -3.3919 -11.2388
v  -9.3980 -1.2924 -10.6603
v  6.7137 0.3187 -8.4820
v  9.3990 -1.0901 -8.2730
# 72 vertices

vn -0.0022 -0.9751 -0.2218
vn 0.0652 -0.9973 0.0331
vn 0.1269 -0.9889 -0.0770
vn -0.0004 -0.9820 0.1888
vn -0.0060 -0.9806 0.1958
vn 0.0761 -0.9612 -0.2652
vn -0.2953 0.8181 0.4935
vn 0.0988 0.8664 0.4895
vn 0.1805 0.9830 -0.0343
vn -0.2131 0.9710 -0.1079
vn 0.0522 0.9025 -0.4274
vn -0.0634 0.8843 -0.4626
vn -0.0463 -0.7722 0.6337
vn 0.0540 -0.9207 0.3865
vn 0.4353 -0.2622 0.8612
vn -0.2806 -0.2116 0.9362
vn 0.0785 0.4561 0.8864
vn -0.0405 0.2223 0.9741
vn 0.9547 -0.2922 0.0560
vn 0.8680 -0.4480 -0.2142
vn 0.9911 0.0357 -0.1279
vn 0.9922 -0.0072 0.1248
vn 0.8147 -0.3796 -0.4383
vn 0.8827 0.0739 -0.4641
vn 0.7886 0.4776 -0.3872
vn 0.8579 0.5073 -0.0810
vn 0.9249 0.3573 0.1299
vn 0.1860 -0.6804 -0.7089
vn 0.1317 -0.4000 -0.9070
vn 0.0269 0.1022 -0.9944
vn 0.3142 -0.0610 -0.9474
vn 0.0512 0.3324 -0.9417
vn 0.0692 0.5376 -0.8404
vn -0.9643 -0.2226 -0.1431
vn -0.9882 -0.0807 -0.1304
vn -0.9928 0.0257 -0.1173
vn -0.8809 0.2065 -0.4260
vn -0.8862 -0.4633 0.0025
vn -0.8563 0.0570 0.5134
vn -0.7696 0.5932 0.2362
vn -0.9887 0.1498 0.0048
vn -0.8550 0.3913 -0.3405
vn -0.3630 -0.9235 0.1241
vn -0.6571 -0.7468 -0.1024
vn -0.5239 -0.8328 -0.1787
vn 0.4708 -0.6959 -0.5423
vn 0.3651 -0.9115 -0.1896
vn 0.4255 -0.8977 0.1145
vn -0.3678 0.5285 0.7651
vn 0.4512 0.6201 0.6418
vn 0.4080 0.9128 -0.0172
vn 0.3480 0.7403 -0.5752
vn -0.3079 0.7700 -0.5588
vn -0.8319 0.5514 0.0628
vn 0.8391 -0.1088 0.5331
vn -0.5642 -0.3483 0.7485
vn 0.5957 -0.7681 -0.2349
vn 0.8050 -0.5911 0.0509
vn 0.6918 -0.5068 -0.5144
vn 0.6374 0.0669 -0.7676
vn 0.7188 0.0888 -0.6895
vn 0.5770 0.6801 -0.4522
vn 0.6084 0.7916 -0.0570
vn 0.7960 0.5161 0.3161
vn 0.9598 0.0269 0.2792
vn -0.0328 -0.7768 -0.6288
vn 0.3352 -0.7219 -0.6054
vn -0.6915 0.0293 -0.7218
vn -0.3739 -0.0990 -0.9222
vn -0.0812 0.5799 -0.8106
vn 0.1561 0.6665 -0.7290
vn 0.5472 -0.0490 -0.8355
# 72 vertex normals

vt 0.1227 0.1592 0.0000
vt 0.2037 0.1112 0.0000
vt 0.2451 0.4904 0.0000
vt 0.1533 0.4490 0.0000
vt 0.2627 0.1796 0.0000
vt 0.3151 0.4350 0.0000
vt 0.8120 0.3250 0.0000
vt 0.6191 0.5891 0.0000
vt 0.5318 0.5726 0.0000
vt 0.7475 0.2834 0.0000
vt 0.4973 0.4816 0.0000
vt 0.6502 0.2503 0.0000
vt 0.9005 0.4139 0.0000
vt 0.7716 0.7014 0.0000
vt 0.7122 0.7356 0.0000
vt 0.9150 0.3691 0.0000
vt 0.7176 0.6867 0.0000
vt 0.8921 0.4286 0.0000
vt 0.4322 0.6970 0.0000
vt 0.4184 0.6724 0.0000
vt 0.4344 0.6694 0.0000
vt 0.4500 0.6955 0.0000
vt 0.4126 0.6422 0.0000
vt 0.4227 0.6427 0.0000
vt 0.4342 0.6392 0.0000
vt 0.4493 0.6643 0.0000
vt 0.4645 0.6892 0.0000
vt 0.4294 0.3637 0.0000
vt 0.4779 0.1892 0.0000
vt 0.5049 0.1786 0.0000
vt 0.4213 0.3851 0.0000
vt 0.5175 0.2033 0.0000
vt 0.4437 0.3786 0.0000
vt 0.6846 0.1225 0.0000
vt 0.7846 0.1665 0.0000
vt 0.7870 0.1787 0.0000
vt 0.6570 0.1176 0.0000
vt 0.8721 0.2165 0.0000
vt 0.8926 0.2443 0.0000
vt 0.8767 0.2386 0.0000
vt 0.7947 0.1948 0.0000
vt 0.7053 0.1423 0.0000
vt 0.0755 0.0502 0.0000
vt 0.1990 0.0200 0.0000
vt 0.3270 0.0577 0.0000
vt 0.3748 0.5199 0.0000
vt 0.2625 0.5964 0.0000
vt 0.1274 0.5790 0.0000
vt 0.8740 0.3387 0.0000
vt 0.5724 0.7078 0.0000
vt 0.4805 0.6474 0.0000
vt 0.4323 0.5320 0.0000
vt 0.6433 0.1599 0.0000
vt 0.7946 0.2165 0.0000
vt 0.0346 0.4687 0.0000
vt 0.0225 0.1635 0.0000
vt 0.0774 0.6299 0.0000
vt 0.0200 0.5148 0.0000
vt 0.5416 0.7569 0.0000
vt 0.9403 0.2872 0.0000
vt 0.9800 0.2973 0.0000
vt 0.4657 0.7813 0.0000
vt 0.4039 0.6529 0.0000
vt 0.4072 0.6656 0.0000
vt 0.4398 0.7178 0.0000
vt 0.4033 0.6127 0.0000
vt 0.4008 0.5380 0.0000
vt 0.4116 0.5966 0.0000
vt 0.4332 0.6135 0.0000
vt 0.4658 0.6569 0.0000
vt 0.4918 0.7011 0.0000
vt 0.4813 0.7287 0.0000
vt 0.4478 0.1316 0.0000
vt 0.4164 0.4165 0.0000
vt 0.4985 0.0499 0.0000
vt 0.5802 0.1005 0.0000
vt 0.5361 0.1058 0.0000
vt 0.5513 0.1582 0.0000
vt 0.4375 0.4350 0.0000
vt 0.4038 0.4690 0.0000
vt 0.6347 0.0699 0.0000
vt 0.7860 0.1428 0.0000
vt 0.9289 0.2069 0.0000
# 83 texture coords

g Limb_D_3
usemtl wire_086086086
s 1
f 1/1/1 2/2/2 3/3/3 4/4/4 
f 2/2/2 5/5/5 6/6/6 3/3/3 
f 7/7/7 8/8/8 9/9/9 10/10/10 
f 11/11/11 12/12/12 10/10/10 9/9/9 
f 13/13/13 14/14/14 15/15/15 16/16/16 
f 17/17/17 18/18/18 16/16/16 15/15/15 
f 19/19/19 20/20/20 21/21/21 22/22/22 
f 20/20/20 23/23/23 24/24/24 21/21/21 
f 25/25/25 26/26/26 21/21/21 24/24/24 
f 26/26/26 27/27/27 22/22/22 21/21/21 
f 28/28/28 29/29/29 30/30/30 31/31/31 
f 32/32/32 33/33/33 31/31/31 30/30/30 
f 34/34/34 35/35/35 36/36/36 37/37/37 
f 35/35/35 38/38/38 39/39/39 36/36/36 
f 40/40/40 41/41/41 36/36/36 39/39/39 
f 41/41/41 42/42/42 37/37/37 36/36/36 
f 43/43/43 44/44/44 2/2/2 1/1/1 
f 44/44/44 45/45/45 5/5/5 2/2/2 
f 45/45/45 46/46/46 6/6/6 5/5/5 
f 46/46/46 47/47/47 3/3/3 6/6/6 
f 47/47/47 48/48/48 4/4/4 3/3/3 
f 48/48/48 43/43/43 1/1/1 4/4/4 
f 49/49/49 50/50/50 8/8/8 7/7/7 
f 50/50/50 51/51/51 9/9/9 8/8/8 
f 51/51/51 52/52/52 11/11/11 9/9/9 
f 52/52/52 53/53/53 12/12/12 11/11/11 
f 53/53/53 54/54/54 10/10/10 12/12/12 
f 54/54/54 49/49/49 7/7/7 10/10/10 
f 43/43/43 48/48/48 14/55/14 13/56/13 
f 48/48/48 55/57/55 15/58/15 14/55/14 
f 55/59/55 50/50/50 17/17/17 15/15/15 
f 50/50/50 49/49/49 18/18/18 17/17/17 
f 49/49/49 56/60/56 16/16/16 18/18/18 
f 56/60/56 43/61/43 13/13/13 16/16/16 
f 48/62/48 47/63/47 57/64/57 58/65/58 
f 47/63/47 46/46/46 59/66/59 57/64/57 
f 23/23/23 20/20/20 57/64/57 59/66/59 
f 20/20/20 19/19/19 58/65/58 57/64/57 
f 46/46/46 60/67/60 61/68/61 59/66/59 
f 60/67/60 52/52/52 62/69/62 61/68/61 
f 25/25/25 24/24/24 61/68/61 62/69/62 
f 24/24/24 23/23/23 59/66/59 61/68/61 
f 52/52/52 51/51/51 63/70/63 62/69/62 
f 51/51/51 50/50/50 64/71/64 63/70/63 
f 27/27/27 26/26/26 63/70/63 64/71/64 
f 26/26/26 25/25/25 62/69/62 63/70/63 
f 50/50/50 55/59/55 65/72/65 64/71/64 
f 55/59/55 48/62/48 58/65/58 65/72/65 
f 19/19/19 22/22/22 65/72/65 58/65/58 
f 22/22/22 27/27/27 64/71/64 65/72/65 
f 46/46/46 45/45/45 66/73/66 67/74/67 
f 29/29/29 28/28/28 67/74/67 66/73/66 
f 45/75/45 68/76/68 69/77/69 66/73/66 
f 68/76/68 53/53/53 70/78/70 69/77/69 
f 32/32/32 30/30/30 69/77/69 70/78/70 
f 30/30/30 29/29/29 66/73/66 69/77/69 
f 53/53/53 52/52/52 71/79/71 70/78/70 
f 33/33/33 32/32/32 70/78/70 71/79/71 
f 52/52/52 60/67/60 72/80/72 71/79/71 
f 60/67/60 46/46/46 67/74/67 72/80/72 
f 28/28/28 31/31/31 72/80/72 67/74/67 
f 31/31/31 33/33/33 71/79/71 72/80/72 
f 45/81/45 44/82/44 35/35/35 34/34/34 
f 44/82/44 43/83/43 38/38/38 35/35/35 
f 43/83/43 56/60/56 39/39/39 38/38/38 
f 56/60/56 49/49/49 40/40/40 39/39/39 
f 49/49/49 54/54/54 41/41/41 40/40/40 
f 54/54/54 53/53/53 42/42/42 41/41/41 
f 53/53/53 68/76/68 37/37/37 42/42/42 
f 68/76/68 45/81/45 34/34/34 37/37/37 
# 70 polygons

