# 3ds Max Wavefront OBJ Exporter v0.97b - (c)2007 guruware
# File Created: 11.11.2016 22:59:21

mtllib limb_C4.mtl

#
# object limb_C_4
#

v  0.6552 2.4725 -0.0632
v  -0.2535 2.4725 0.1896
v  -0.2535 0.4900 1.8581
v  0.6552 0.4900 1.6053
v  0.6552 -2.4725 -2.9593
v  -0.6048 -2.4725 -2.8329
v  -0.2535 0.4900 -1.4789
v  0.6552 0.4900 -1.7317
v  -0.3544 0.5342 0.1533
v  -0.6552 -1.9547 0.0450
v  -0.6048 -2.4725 2.9593
v  0.6552 -0.9856 -0.0632
v  0.6552 -2.4725 2.8329
# 13 vertices

vn -0.0362 0.9909 -0.1300
vn 0.0362 0.9909 0.1300
vn 0.2082 0.6298 0.7483
vn -0.1192 0.4143 -0.9023
vn -0.0904 0.4228 -0.9017
vn -0.2114 0.3843 -0.8987
vn -0.2489 0.3708 -0.8948
vn -0.9986 0.0520 0.0003
vn -0.9927 0.1068 -0.0564
vn -0.9963 0.0856 -0.0009
vn -0.2082 0.6298 -0.7483
vn -0.9933 0.1025 0.0539
vn -0.9898 0.1365 -0.0419
vn -0.9915 0.1298 -0.0020
vn -0.9903 0.1326 0.0407
vn 1.0000 0.0000 -0.0000
vn 0.1224 0.3439 0.9310
vn 0.2489 0.3708 0.8948
vn 0.2149 0.3641 0.9062
vn 0.0940 0.3371 0.9368
vn 0.3601 -0.8803 0.3088
vn 0.3100 -0.8979 -0.3125
# 22 vertex normals

vt 0.8696 0.1859 0.0000
vt 0.6099 0.1705 0.0000
vt 0.6099 0.0690 0.0000
vt 0.8696 0.0844 0.0000
vt 0.8696 0.3621 0.0000
vt 0.5095 0.3544 0.0000
vt 0.6099 0.2720 0.0000
vt 0.8696 0.2874 0.0000
vt 0.2580 0.4925 0.0000
vt 0.1167 0.2959 0.0000
vt 0.2549 0.3003 0.0000
vt 0.3993 0.2959 0.0000
vt 0.0020 0.0020 0.0000
vt 0.2457 0.0534 0.0000
vt 0.4925 0.0020 0.0000
vt 0.2462 0.6564 0.0000
vt 0.2462 0.9980 0.0000
vt 0.3870 0.8022 0.0000
vt 0.4905 0.5095 0.0000
vt 0.8696 0.0097 0.0000
vt 0.5095 0.0020 0.0000
vt 0.1055 0.8022 0.0000
vt 0.0020 0.5095 0.0000
vt 0.8411 0.7077 0.0000
vt 0.6753 0.7146 0.0000
vt 0.6807 0.4656 0.0000
vt 0.8451 0.5145 0.0000
vt 0.5095 0.5723 0.0000
vt 0.5135 0.3791 0.0000
# 29 texture coords

g limb_C_4
usemtl 09___Default
s 16
f 1/1/1 2/2/2 3/3/3 4/4/3 
s 32
f 5/5/4 6/6/5 7/7/6 8/8/7 
s 4
f 2/9/8 7/10/9 9/11/10 
s 16
f 8/8/11 7/7/11 2/2/2 1/1/1 
s 4
f 3/12/12 2/9/8 9/11/10 
f 7/10/9 6/13/13 10/14/14 9/11/10 
f 10/14/14 11/15/15 3/12/12 9/11/10 
s 2
f 12/16/16 1/17/16 4/18/16 13/19/16 
s 8
f 13/20/17 4/4/18 3/3/19 11/21/20 
s 2
f 8/22/16 1/17/16 12/16/16 5/23/16 
s off
f 5/24/21 12/25/21 10/26/21 6/27/21 
f 13/28/22 11/29/22 10/26/22 12/25/22 
# 10 polygons - 2 triangles

