# 3ds Max Wavefront OBJ Exporter v0.97b - (c)2007 guruware
# File Created: 12.11.2016 11:17:21

mtllib obj_bouledivination.mtl

#
# object socle_divination
#

v  17.3661 -0.0000 -6.3208
v  11.8791 0.0000 -14.1570
v  11.8791 0.4713 -14.1570
v  17.3661 0.4713 -6.3208
v  3.2091 0.0000 -18.1999
v  3.2091 0.4713 -18.1999
v  -6.3208 0.0000 -17.3661
v  -6.3208 0.4713 -17.3661
v  -14.1570 0.0000 -11.8791
v  -14.1570 0.4713 -11.8791
v  -18.1999 0.0000 -3.2091
v  -18.1999 0.4713 -3.2091
v  -17.3661 0.0000 6.3208
v  -17.3661 0.4713 6.3208
v  -11.8791 -0.0000 14.1570
v  -11.8791 0.4713 14.1570
v  -3.2091 -0.0000 18.1999
v  -3.2091 0.4713 18.1999
v  6.3207 -0.0000 17.3661
v  6.3207 0.4713 17.3661
v  14.1570 -0.0000 11.8791
v  14.1570 0.4713 11.8791
v  18.1999 -0.0000 3.2091
v  18.1999 0.4713 3.2091
v  11.1256 1.3180 -13.2590
v  16.2646 1.3180 -5.9198
v  3.0056 1.3180 -17.0455
v  -5.9198 1.3180 -16.2646
v  -13.2590 1.3180 -11.1256
v  -17.0455 1.3180 -3.0056
v  -16.2646 1.3180 5.9198
v  -11.1257 1.3180 13.2590
v  -3.0056 1.3180 17.0455
v  5.9198 1.3180 16.2646
v  13.2590 1.3180 11.1257
v  17.0455 1.3180 3.0056
v  11.1256 1.7765 -13.2590
v  16.2646 1.7765 -5.9198
v  3.0056 1.7765 -17.0455
v  -5.9198 1.7765 -16.2646
v  -13.2590 1.7765 -11.1256
v  -17.0455 1.7765 -3.0056
v  -16.2646 1.7765 5.9198
v  -11.1257 1.7765 13.2590
v  -3.0056 1.7765 17.0455
v  5.9198 1.7765 16.2646
v  13.2590 1.7765 11.1257
v  17.0455 1.7765 3.0056
v  11.9868 2.0881 -14.2853
v  17.5235 2.0881 -6.3780
v  3.2382 2.0881 -18.3648
v  -6.3780 2.0881 -17.5235
v  -14.2853 2.0881 -11.9868
v  -18.3648 2.0881 -3.2382
v  -17.5235 2.0881 6.3780
v  -11.9868 2.0881 14.2853
v  -3.2382 2.0881 18.3648
v  6.3780 2.0881 17.5235
v  14.2853 2.0881 11.9868
v  18.3648 2.0881 3.2382
v  12.2187 2.6419 -14.5617
v  17.8626 2.6419 -6.5014
v  3.3009 2.6419 -18.7202
v  -6.5014 2.6419 -17.8626
v  -14.5617 2.6419 -12.2187
v  -18.7202 2.6419 -3.3009
v  -17.8626 2.6419 6.5014
v  -12.2187 2.6419 14.5617
v  -3.3009 2.6419 18.7202
v  6.5014 2.6419 17.8626
v  14.5617 2.6419 12.2187
v  18.7202 2.6419 3.3009
v  10.7611 2.9855 -12.8246
v  15.7317 2.9855 -5.7259
v  2.9071 2.9855 -16.4870
v  -5.7259 2.9855 -15.7317
v  -12.8246 2.9855 -10.7611
v  -16.4870 2.9855 -2.9071
v  -15.7317 2.9855 5.7259
v  -10.7611 2.9855 12.8246
v  -2.9071 2.9855 16.4870
v  5.7259 2.9855 15.7317
v  12.8246 2.9855 10.7611
v  16.4870 2.9855 2.9071
v  8.2783 1.5976 -9.8657
v  12.1020 1.5976 -4.4048
v  2.2364 1.5976 -12.6830
v  -4.4048 1.5976 -12.1020
v  -9.8657 1.5976 -8.2783
v  -12.6830 1.5976 -2.2364
v  -12.1020 1.5976 4.4048
v  -8.2783 1.5976 9.8657
v  -2.2364 1.5976 12.6830
v  4.4048 1.5976 12.1020
v  9.8657 1.5976 8.2783
v  12.6830 1.5976 2.2364
v  5.3357 0.5472 -6.3589
v  7.8003 0.5472 -2.8391
v  1.4414 0.5472 -8.1748
v  -2.8391 0.5472 -7.8003
v  -6.3589 0.5472 -5.3357
v  -8.1748 0.5472 -1.4414
v  -7.8003 0.5472 2.8391
v  -5.3357 0.5472 6.3589
v  -1.4414 0.5472 8.1748
v  2.8391 0.5472 7.8003
v  6.3589 0.5472 5.3357
v  8.1748 0.5472 1.4415
v  3.4178 0.5472 -4.0732
v  4.9965 0.5472 -1.8186
v  0.9233 0.5472 -5.2364
v  -1.8186 0.5472 -4.9965
v  -4.0732 0.5472 -3.4178
v  -5.2364 0.5472 -0.9233
v  -4.9965 0.5472 1.8186
v  -3.4178 0.5472 4.0732
v  -0.9233 0.5472 5.2364
v  1.8186 0.5472 4.9965
v  4.0732 0.5472 3.4178
v  5.2364 0.5472 0.9233
v  1.0824 0.5472 -1.2900
v  1.5824 0.5472 -0.5760
v  0.2924 0.5472 -1.6584
v  -0.5760 0.5472 -1.5824
v  -1.2900 0.5472 -1.0824
v  -1.6584 0.5472 -0.2924
v  -1.5824 0.5472 0.5760
v  -1.0824 0.5472 1.2900
v  -0.2924 0.5472 1.6584
v  0.5760 0.5472 1.5824
v  1.2900 0.5472 1.0824
v  1.6584 0.5472 0.2924
v  0.0000 31.6649 0.0000
v  -2.9850 29.3264 -8.2012
v  -6.6857 29.3264 -5.6099
v  -8.5949 29.3264 -1.5155
v  -8.2012 29.3264 2.9850
v  -5.6099 29.3264 6.6857
v  -1.5155 29.3264 8.5949
v  2.9850 29.3264 8.2012
v  6.6857 29.3264 5.6100
v  8.5949 29.3264 1.5155
v  8.2012 29.3264 -2.9850
v  5.6100 29.3264 -6.6857
v  1.5155 29.3264 -8.5949
v  -11.5799 22.9374 -9.7167
v  -5.1702 22.9374 -14.2049
v  -14.8869 22.9374 -2.6250
v  -14.2049 22.9374 5.1702
v  -9.7167 22.9374 11.5799
v  -2.6250 22.9374 14.8869
v  5.1701 22.9374 14.2049
v  11.5799 22.9374 9.7167
v  14.8869 22.9374 2.6250
v  14.2049 22.9374 -5.1701
v  9.7167 22.9374 -11.5799
v  2.6250 22.9374 -14.8869
v  -13.3713 14.2098 -11.2199
v  -5.9700 14.2098 -16.4024
v  -17.1899 14.2098 -3.0310
v  -16.4024 14.2098 5.9700
v  -11.2199 14.2098 13.3713
v  -3.0310 14.2098 17.1899
v  5.9700 14.2098 16.4024
v  13.3713 14.2098 11.2199
v  17.1899 14.2098 3.0311
v  16.4024 14.2098 -5.9700
v  11.2199 14.2098 -13.3713
v  3.0311 14.2098 -17.1899
v  -11.5799 5.4823 -9.7167
v  -5.1702 5.4823 -14.2049
v  -14.8869 5.4823 -2.6250
v  -14.2049 5.4823 5.1702
v  -9.7167 5.4823 11.5799
v  -2.6250 5.4823 14.8869
v  5.1701 5.4823 14.2049
v  11.5799 5.4823 9.7167
v  14.8869 5.4823 2.6250
v  14.2049 5.4823 -5.1701
v  9.7167 5.4823 -11.5799
v  2.6250 5.4823 -14.8869
v  -6.6857 -0.9067 -5.6099
v  -2.9850 -0.9067 -8.2012
v  -8.5949 -0.9067 -1.5155
v  -8.2012 -0.9067 2.9850
v  -5.6099 -0.9067 6.6857
v  -1.5155 -0.9067 8.5949
v  2.9850 -0.9067 8.2012
v  6.6857 -0.9067 5.6100
v  8.5949 -0.9067 1.5155
v  8.2012 -0.9067 -2.9850
v  5.6100 -0.9067 -6.6857
v  1.5155 -0.9067 -8.5949
v  0.0000 -3.2452 0.0000
# 194 vertices

vn 0.9397 -0.0000 -0.3420
vn 0.6428 0.0000 -0.7660
vn 0.9397 0.0000 -0.3420
vn 0.1736 0.0000 -0.9848
vn -0.3420 0.0000 -0.9397
vn -0.7660 0.0000 -0.6428
vn -0.9848 0.0000 -0.1736
vn -0.9397 0.0000 0.3420
vn -0.9397 -0.0000 0.3420
vn -0.6428 -0.0000 0.7660
vn -0.1736 -0.0000 0.9848
vn 0.3420 -0.0000 0.9397
vn 0.7660 -0.0000 0.6428
vn 0.9848 -0.0000 0.1736
vn -0.0000 -1.0000 -0.0000
vn 0.7219 0.4727 -0.5055
vn 0.3724 0.4727 -0.7987
vn -0.0768 0.4727 -0.8779
vn -0.5055 0.4727 -0.7219
vn -0.7987 0.4727 -0.3724
vn -0.8779 0.4727 0.0768
vn -0.7219 0.4727 0.5055
vn -0.3724 0.4727 0.7987
vn 0.0768 0.4727 0.8779
vn 0.5055 0.4727 0.7219
vn 0.7987 0.4727 0.3724
vn 0.8779 0.4727 -0.0768
vn 0.8192 0.0000 -0.5736
vn 0.4226 0.0000 -0.9063
vn -0.0872 -0.0000 -0.9962
vn -0.5736 0.0000 -0.8192
vn -0.9063 0.0000 -0.4226
vn -0.9962 0.0000 0.0872
vn -0.8192 -0.0000 0.5736
vn -0.4226 -0.0000 0.9063
vn 0.0872 -0.0000 0.9962
vn 0.5736 -0.0000 0.8192
vn 0.9063 -0.0000 0.4226
vn 0.9962 -0.0000 -0.0872
vn 0.4216 -0.8574 -0.2952
vn 0.2175 -0.8574 -0.4665
vn -0.0449 -0.8574 -0.5127
vn -0.2952 -0.8574 -0.4216
vn -0.4665 -0.8574 -0.2175
vn -0.5127 -0.8574 0.0449
vn -0.4216 -0.8574 0.2952
vn -0.2175 -0.8574 0.4665
vn 0.0449 -0.8574 0.5127
vn 0.2952 -0.8574 0.4216
vn 0.4665 -0.8574 0.2175
vn 0.5127 -0.8574 -0.0449
vn 0.7942 -0.2447 -0.5561
vn 0.4098 -0.2447 -0.8787
vn -0.0845 -0.2447 -0.9659
vn -0.5561 -0.2447 -0.7942
vn -0.8787 -0.2447 -0.4098
vn -0.9659 -0.2447 0.0845
vn -0.7942 -0.2447 0.5561
vn -0.4098 -0.2447 0.8787
vn 0.0845 -0.2447 0.9659
vn 0.5561 -0.2447 0.7942
vn 0.8787 -0.2447 0.4098
vn 0.9659 -0.2447 -0.0845
vn 0.2983 0.9313 -0.2089
vn 0.1539 0.9313 -0.3300
vn -0.0317 0.9313 -0.3628
vn -0.2089 0.9313 -0.2983
vn -0.3300 0.9313 -0.1539
vn -0.3628 0.9313 0.0317
vn -0.2983 0.9313 0.2089
vn -0.1539 0.9313 0.3300
vn 0.0317 0.9313 0.3628
vn 0.2089 0.9313 0.2983
vn 0.3300 0.9313 0.1539
vn 0.3628 0.9313 -0.0317
vn -0.5570 0.7332 0.3900
vn -0.2874 0.7332 0.6163
vn 0.0593 0.7332 0.6774
vn 0.3900 0.7332 0.5570
vn 0.6163 0.7332 0.2874
vn 0.6774 0.7332 -0.0593
vn 0.5570 0.7332 -0.3900
vn 0.2874 0.7332 -0.6163
vn -0.0593 0.7332 -0.6774
vn -0.3900 0.7332 -0.5570
vn -0.6163 0.7332 -0.2874
vn -0.6774 0.7332 0.0593
vn -0.4174 0.8604 0.2923
vn -0.2154 0.8604 0.4618
vn 0.0444 0.8604 0.5077
vn 0.2923 0.8604 0.4174
vn 0.4618 0.8604 0.2154
vn 0.5077 0.8604 -0.0444
vn 0.4174 0.8604 -0.2923
vn 0.2154 0.8604 -0.4618
vn -0.0444 0.8604 -0.5077
vn -0.2923 0.8604 -0.4174
vn -0.4618 0.8604 -0.2154
vn -0.5077 0.8604 0.0444
vn -0.0000 1.0000 0.0000
vn -0.0000 1.0000 -0.0000
vn 0.0000 1.0000 -0.0000
vn 0.0000 1.0000 0.0000
vn -0.2718 0.6071 -0.7467
vn -0.6087 0.6071 -0.5108
vn -0.7825 0.6071 -0.1380
vn -0.7467 0.6071 0.2718
vn -0.5108 0.6071 0.6087
vn -0.1380 0.6071 0.7825
vn 0.2718 0.6071 0.7467
vn 0.6087 0.6071 0.5108
vn 0.7825 0.6071 0.1380
vn 0.7467 0.6071 -0.2718
vn 0.5108 0.6071 -0.6087
vn 0.1380 0.6071 -0.7825
vn -0.7443 0.2367 -0.6245
vn -0.3323 0.2367 -0.9130
vn -0.9568 0.2367 -0.1687
vn -0.9130 0.2367 0.3323
vn -0.6245 0.2367 0.7443
vn -0.1687 0.2367 0.9568
vn 0.3323 0.2367 0.9130
vn 0.7443 0.2367 0.6245
vn 0.9568 0.2367 0.1687
vn 0.9130 0.2367 -0.3323
vn 0.6245 0.2367 -0.7443
vn 0.1687 0.2367 -0.9568
vn -0.9848 -0.0000 -0.1736
vn 0.6428 -0.0000 -0.7660
vn -0.7443 -0.2367 -0.6245
vn -0.3323 -0.2367 -0.9130
vn -0.9568 -0.2367 -0.1687
vn -0.9130 -0.2367 0.3323
vn -0.6245 -0.2367 0.7443
vn -0.1687 -0.2367 0.9568
vn 0.3323 -0.2367 0.9130
vn 0.7443 -0.2367 0.6245
vn 0.9568 -0.2367 0.1687
vn 0.9130 -0.2367 -0.3323
vn 0.6245 -0.2367 -0.7443
vn 0.1687 -0.2367 -0.9568
vn -0.6087 -0.6071 -0.5108
vn -0.2718 -0.6071 -0.7467
vn -0.7825 -0.6071 -0.1380
vn -0.7467 -0.6071 0.2718
vn -0.5108 -0.6071 0.6087
vn -0.1380 -0.6071 0.7825
vn 0.2718 -0.6071 0.7467
vn 0.6087 -0.6071 0.5108
vn 0.7825 -0.6071 0.1380
vn 0.7467 -0.6071 -0.2718
vn 0.5108 -0.6071 -0.6087
vn 0.1380 -0.6071 -0.7825
vn -0.0000 -1.0000 0.0000
# 154 vertex normals

vt 0.2957 0.8971 0.0000
vt 0.2510 0.9609 0.0000
vt 0.1805 0.9938 0.0000
vt 0.1029 0.9870 0.0000
vt 0.0391 0.9423 0.0000
vt 0.0062 0.8718 0.0000
vt 0.0130 0.7942 0.0000
vt 0.0577 0.7304 0.0000
vt 0.1282 0.6975 0.0000
vt 0.2058 0.7043 0.0000
vt 0.2696 0.7490 0.0000
vt 0.3025 0.8195 0.0000
vt 0.2449 0.9536 0.0000
vt 0.2867 0.8938 0.0000
vt 0.1788 0.9844 0.0000
vt 0.1062 0.9780 0.0000
vt 0.0464 0.9362 0.0000
vt 0.0156 0.8701 0.0000
vt 0.0220 0.7975 0.0000
vt 0.0638 0.7377 0.0000
vt 0.1299 0.7069 0.0000
vt 0.2025 0.7133 0.0000
vt 0.2623 0.7551 0.0000
vt 0.2931 0.8212 0.0000
vt 0.2519 0.9619 0.0000
vt 0.2970 0.8975 0.0000
vt 0.1807 0.9951 0.0000
vt 0.1025 0.9883 0.0000
vt 0.0381 0.9432 0.0000
vt 0.0049 0.8720 0.0000
vt 0.0117 0.7937 0.0000
vt 0.0568 0.7294 0.0000
vt 0.1280 0.6962 0.0000
vt 0.2063 0.7030 0.0000
vt 0.2706 0.7481 0.0000
vt 0.3038 0.8193 0.0000
vt 0.2538 0.9642 0.0000
vt 0.2997 0.8986 0.0000
vt 0.1812 0.9980 0.0000
vt 0.1014 0.9910 0.0000
vt 0.0358 0.9451 0.0000
vt 0.0020 0.8725 0.0000
vt 0.0090 0.7927 0.0000
vt 0.0549 0.7271 0.0000
vt 0.1275 0.6933 0.0000
vt 0.2073 0.7003 0.0000
vt 0.2729 0.7462 0.0000
vt 0.3067 0.8188 0.0000
vt 0.2419 0.9500 0.0000
vt 0.2824 0.8922 0.0000
vt 0.1780 0.9798 0.0000
vt 0.1078 0.9737 0.0000
vt 0.0500 0.9332 0.0000
vt 0.0202 0.8693 0.0000
vt 0.0263 0.7990 0.0000
vt 0.0668 0.7413 0.0000
vt 0.1307 0.7114 0.0000
vt 0.2010 0.7176 0.0000
vt 0.2587 0.7581 0.0000
vt 0.2886 0.8220 0.0000
vt 0.2217 0.9259 0.0000
vt 0.2529 0.8815 0.0000
vt 0.1726 0.9489 0.0000
vt 0.1185 0.9441 0.0000
vt 0.0741 0.9130 0.0000
vt 0.0511 0.8638 0.0000
vt 0.0559 0.8098 0.0000
vt 0.0870 0.7653 0.0000
vt 0.1362 0.7424 0.0000
vt 0.1902 0.7471 0.0000
vt 0.2347 0.7783 0.0000
vt 0.2576 0.8274 0.0000
vt 0.1978 0.8974 0.0000
vt 0.2179 0.8687 0.0000
vt 0.1661 0.9122 0.0000
vt 0.1313 0.9091 0.0000
vt 0.1026 0.8891 0.0000
vt 0.0878 0.8574 0.0000
vt 0.0909 0.8225 0.0000
vt 0.1109 0.7939 0.0000
vt 0.1426 0.7791 0.0000
vt 0.1775 0.7821 0.0000
vt 0.2061 0.8022 0.0000
vt 0.2209 0.8339 0.0000
vt 0.1822 0.8788 0.0000
vt 0.1950 0.8604 0.0000
vt 0.1619 0.8883 0.0000
vt 0.1396 0.8863 0.0000
vt 0.1212 0.8735 0.0000
vt 0.1117 0.8532 0.0000
vt 0.1137 0.8308 0.0000
vt 0.1265 0.8125 0.0000
vt 0.1468 0.8030 0.0000
vt 0.1692 0.8050 0.0000
vt 0.1875 0.8178 0.0000
vt 0.1970 0.8381 0.0000
vt 0.1632 0.8561 0.0000
vt 0.1672 0.8503 0.0000
vt 0.1567 0.8591 0.0000
vt 0.1497 0.8585 0.0000
vt 0.1439 0.8544 0.0000
vt 0.1409 0.8480 0.0000
vt 0.1415 0.8409 0.0000
vt 0.1456 0.8351 0.0000
vt 0.1520 0.8321 0.0000
vt 0.1591 0.8328 0.0000
vt 0.1649 0.8368 0.0000
vt 0.1679 0.8433 0.0000
vt 0.0020 0.6784 0.0000
vt 0.0020 0.5657 0.0000
vt 0.0584 0.5657 0.0000
vt 0.0584 0.6784 0.0000
vt 0.1147 0.5657 0.0000
vt 0.1147 0.6784 0.0000
vt 0.1711 0.5657 0.0000
vt 0.1711 0.6784 0.0000
vt 0.2275 0.5657 0.0000
vt 0.2275 0.6784 0.0000
vt 0.2838 0.5657 0.0000
vt 0.2838 0.6784 0.0000
vt 0.3402 0.5657 0.0000
vt 0.3402 0.6784 0.0000
vt 0.3966 0.5657 0.0000
vt 0.3966 0.6784 0.0000
vt 0.4530 0.5657 0.0000
vt 0.4530 0.6784 0.0000
vt 0.5093 0.5657 0.0000
vt 0.5093 0.6784 0.0000
vt 0.5657 0.5657 0.0000
vt 0.5657 0.6784 0.0000
vt 0.6221 0.5657 0.0000
vt 0.6221 0.6784 0.0000
vt 0.6784 0.5657 0.0000
vt 0.0584 0.4530 0.0000
vt 0.0020 0.4530 0.0000
vt 0.1147 0.4530 0.0000
vt 0.1711 0.4530 0.0000
vt 0.2275 0.4530 0.0000
vt 0.2838 0.4530 0.0000
vt 0.3402 0.4530 0.0000
vt 0.3966 0.4530 0.0000
vt 0.4530 0.4530 0.0000
vt 0.5093 0.4530 0.0000
vt 0.5657 0.4530 0.0000
vt 0.6221 0.4530 0.0000
vt 0.6784 0.4530 0.0000
vt 0.0584 0.3402 0.0000
vt 0.0020 0.3402 0.0000
vt 0.1147 0.3402 0.0000
vt 0.1711 0.3402 0.0000
vt 0.2275 0.3402 0.0000
vt 0.2838 0.3402 0.0000
vt 0.3402 0.3402 0.0000
vt 0.3966 0.3402 0.0000
vt 0.4530 0.3402 0.0000
vt 0.5093 0.3402 0.0000
vt 0.5657 0.3402 0.0000
vt 0.6221 0.3402 0.0000
vt 0.6784 0.3402 0.0000
vt 0.0584 0.2275 0.0000
vt 0.0020 0.2275 0.0000
vt 0.1147 0.2275 0.0000
vt 0.1711 0.2275 0.0000
vt 0.2275 0.2275 0.0000
vt 0.2838 0.2275 0.0000
vt 0.3402 0.2275 0.0000
vt 0.3966 0.2275 0.0000
vt 0.4530 0.2275 0.0000
vt 0.5093 0.2275 0.0000
vt 0.5657 0.2275 0.0000
vt 0.6221 0.2275 0.0000
vt 0.6784 0.2275 0.0000
vt 0.0584 0.1147 0.0000
vt 0.0020 0.1147 0.0000
vt 0.1147 0.1147 0.0000
vt 0.1711 0.1147 0.0000
vt 0.2275 0.1147 0.0000
vt 0.2838 0.1147 0.0000
vt 0.3402 0.1147 0.0000
vt 0.3966 0.1147 0.0000
vt 0.4530 0.1147 0.0000
vt 0.5093 0.1147 0.0000
vt 0.5657 0.1147 0.0000
vt 0.6221 0.1147 0.0000
vt 0.6784 0.1147 0.0000
vt 0.0020 0.0020 0.0000
vt 0.0584 0.0020 0.0000
vt 0.1147 0.0020 0.0000
vt 0.1711 0.0020 0.0000
vt 0.2275 0.0020 0.0000
vt 0.2838 0.0020 0.0000
vt 0.3402 0.0020 0.0000
vt 0.3966 0.0020 0.0000
vt 0.4530 0.0020 0.0000
vt 0.5093 0.0020 0.0000
vt 0.5657 0.0020 0.0000
vt 0.6221 0.0020 0.0000
# 197 texture coords

g socle_divination
usemtl 07___Default
s 8
f 1/1/1 2/2/2 3/2/2 4/1/3 
f 2/2/2 5/3/4 6/3/4 3/2/2 
f 5/3/4 7/4/5 8/4/5 6/3/4 
f 7/4/5 9/5/6 10/5/6 8/4/5 
f 9/5/6 11/6/7 12/6/7 10/5/6 
f 11/6/7 13/7/8 14/7/9 12/6/7 
f 13/7/8 15/8/10 16/8/10 14/7/9 
f 15/8/10 17/9/11 18/9/11 16/8/10 
f 17/9/11 19/10/12 20/10/12 18/9/11 
f 19/10/12 21/11/13 22/11/13 20/10/12 
f 21/11/13 23/12/14 24/12/14 22/11/13 
f 23/12/14 1/1/1 4/1/3 24/12/14 
s 1
f 21/11/15 19/10/15 17/9/15 1/1/15 
f 17/9/15 15/8/15 13/7/15 9/5/15 
f 13/7/15 11/6/15 9/5/15 
f 9/5/15 7/4/15 5/3/15 1/1/15 
f 5/3/15 2/2/15 1/1/15 
f 17/9/15 9/5/15 1/1/15 
f 23/12/15 21/11/15 1/1/15 
s off
f 4/1/16 3/2/16 25/13/16 26/14/16 
f 3/2/17 6/3/17 27/15/17 25/13/17 
f 6/3/18 8/4/18 28/16/18 27/15/18 
f 8/4/19 10/5/19 29/17/19 28/16/19 
f 10/5/20 12/6/20 30/18/20 29/17/20 
f 12/6/21 14/7/21 31/19/21 30/18/21 
f 14/7/22 16/8/22 32/20/22 31/19/22 
f 16/8/23 18/9/23 33/21/23 32/20/23 
f 18/9/24 20/10/24 34/22/24 33/21/24 
f 20/10/25 22/11/25 35/23/25 34/22/25 
f 22/11/26 24/12/26 36/24/26 35/23/26 
f 24/12/27 4/1/27 26/14/27 36/24/27 
f 26/14/28 25/13/28 37/13/28 38/14/28 
f 25/13/29 27/15/29 39/15/29 37/13/29 
f 27/15/30 28/16/30 40/16/30 39/15/30 
f 28/16/31 29/17/31 41/17/31 40/16/31 
f 29/17/32 30/18/32 42/18/32 41/17/32 
f 30/18/33 31/19/33 43/19/33 42/18/33 
f 31/19/34 32/20/34 44/20/34 43/19/34 
f 32/20/35 33/21/35 45/21/35 44/20/35 
f 33/21/36 34/22/36 46/22/36 45/21/36 
f 34/22/37 35/23/37 47/23/37 46/22/37 
f 35/23/38 36/24/38 48/24/38 47/23/38 
f 36/24/39 26/14/39 38/14/39 48/24/39 
f 38/14/40 37/13/40 49/25/40 50/26/40 
f 37/13/41 39/15/41 51/27/41 49/25/41 
f 39/15/42 40/16/42 52/28/42 51/27/42 
f 40/16/43 41/17/43 53/29/43 52/28/43 
f 41/17/44 42/18/44 54/30/44 53/29/44 
f 42/18/45 43/19/45 55/31/45 54/30/45 
f 43/19/46 44/20/46 56/32/46 55/31/46 
f 44/20/47 45/21/47 57/33/47 56/32/47 
f 45/21/48 46/22/48 58/34/48 57/33/48 
f 46/22/49 47/23/49 59/35/49 58/34/49 
f 47/23/50 48/24/50 60/36/50 59/35/50 
f 48/24/51 38/14/51 50/26/51 60/36/51 
f 50/26/52 49/25/52 61/37/52 62/38/52 
f 49/25/53 51/27/53 63/39/53 61/37/53 
f 51/27/54 52/28/54 64/40/54 63/39/54 
f 52/28/55 53/29/55 65/41/55 64/40/55 
f 53/29/56 54/30/56 66/42/56 65/41/56 
f 54/30/57 55/31/57 67/43/57 66/42/57 
f 55/31/58 56/32/58 68/44/58 67/43/58 
f 56/32/59 57/33/59 69/45/59 68/44/59 
f 57/33/60 58/34/60 70/46/60 69/45/60 
f 58/34/61 59/35/61 71/47/61 70/46/61 
f 59/35/62 60/36/62 72/48/62 71/47/62 
f 60/36/63 50/26/63 62/38/63 72/48/63 
f 62/38/64 61/37/64 73/49/64 74/50/64 
f 61/37/65 63/39/65 75/51/65 73/49/65 
f 63/39/66 64/40/66 76/52/66 75/51/66 
f 64/40/67 65/41/67 77/53/67 76/52/67 
f 65/41/68 66/42/68 78/54/68 77/53/68 
f 66/42/69 67/43/69 79/55/69 78/54/69 
f 67/43/70 68/44/70 80/56/70 79/55/70 
f 68/44/71 69/45/71 81/57/71 80/56/71 
f 69/45/72 70/46/72 82/58/72 81/57/72 
f 70/46/73 71/47/73 83/59/73 82/58/73 
f 71/47/74 72/48/74 84/60/74 83/59/74 
f 72/48/75 62/38/75 74/50/75 84/60/75 
f 74/50/76 73/49/76 85/61/76 86/62/76 
f 73/49/77 75/51/77 87/63/77 85/61/77 
f 75/51/78 76/52/78 88/64/78 87/63/78 
f 76/52/79 77/53/79 89/65/79 88/64/79 
f 77/53/80 78/54/80 90/66/80 89/65/80 
f 78/54/81 79/55/81 91/67/81 90/66/81 
f 79/55/82 80/56/82 92/68/82 91/67/82 
f 80/56/83 81/57/83 93/69/83 92/68/83 
f 81/57/84 82/58/84 94/70/84 93/69/84 
f 82/58/85 83/59/85 95/71/85 94/70/85 
f 83/59/86 84/60/86 96/72/86 95/71/86 
f 84/60/87 74/50/87 86/62/87 96/72/87 
f 86/62/88 85/61/88 97/73/88 98/74/88 
f 85/61/89 87/63/89 99/75/89 97/73/89 
f 87/63/90 88/64/90 100/76/90 99/75/90 
f 88/64/91 89/65/91 101/77/91 100/76/91 
f 89/65/92 90/66/92 102/78/92 101/77/92 
f 90/66/93 91/67/93 103/79/93 102/78/93 
f 91/67/94 92/68/94 104/80/94 103/79/94 
f 92/68/95 93/69/95 105/81/95 104/80/95 
f 93/69/96 94/70/96 106/82/96 105/81/96 
f 94/70/97 95/71/97 107/83/97 106/82/97 
f 95/71/98 96/72/98 108/84/98 107/83/98 
f 96/72/99 86/62/99 98/74/99 108/84/99 
f 98/74/100 97/73/100 109/85/100 110/86/100 
f 97/73/101 99/75/101 111/87/101 109/85/101 
f 99/75/102 100/76/102 112/88/102 111/87/102 
f 100/76/100 101/77/100 113/89/100 112/88/100 
f 101/77/100 102/78/100 114/90/100 113/89/100 
f 102/78/101 103/79/101 115/91/101 114/90/101 
f 103/79/100 104/80/100 116/92/100 115/91/100 
f 104/80/100 105/81/100 117/93/100 116/92/100 
f 105/81/103 106/82/103 118/94/103 117/93/103 
f 106/82/103 107/83/103 119/95/103 118/94/103 
f 107/83/103 108/84/103 120/96/103 119/95/103 
f 108/84/103 98/74/103 110/86/103 120/96/103 
f 110/86/100 109/85/100 121/97/100 122/98/100 
f 109/85/101 111/87/101 123/99/101 121/97/101 
f 111/87/102 112/88/102 124/100/102 123/99/102 
f 112/88/100 113/89/100 125/101/100 124/100/100 
f 113/89/100 114/90/100 126/102/100 125/101/100 
f 114/90/101 115/91/101 127/103/101 126/102/101 
f 115/91/100 116/92/100 128/104/100 127/103/100 
f 116/92/100 117/93/100 129/105/100 128/104/100 
f 117/93/103 118/94/103 130/106/103 129/105/103 
f 118/94/103 119/95/103 131/107/103 130/106/103 
f 119/95/103 120/96/103 132/108/103 131/107/103 
f 120/96/103 110/86/103 122/98/103 132/108/103 
f 123/99/100 124/100/100 125/101/100 122/98/100 
f 125/101/102 126/102/102 127/103/102 129/105/102 
f 127/103/103 128/104/103 129/105/103 
f 129/105/103 130/106/103 131/107/103 122/98/103 
f 131/107/103 132/108/103 122/98/103 
f 125/101/100 129/105/100 122/98/100 
f 121/97/100 123/99/100 122/98/100 
s 1
f 133/109/100 134/110/104 135/111/105 
f 133/112/100 135/111/105 136/113/106 
f 133/114/100 136/113/106 137/115/107 
f 133/116/100 137/115/107 138/117/108 
f 133/118/100 138/117/108 139/119/109 
f 133/120/100 139/119/109 140/121/110 
f 133/122/100 140/121/110 141/123/111 
f 133/124/100 141/123/111 142/125/112 
f 133/126/100 142/125/112 143/127/113 
f 133/128/100 143/127/113 144/129/114 
f 133/130/100 144/129/114 145/131/115 
f 133/132/100 145/131/115 134/133/104 
f 146/134/116 135/111/105 134/110/104 147/135/117 
f 148/136/118 136/113/106 135/111/105 146/134/116 
f 149/137/119 137/115/107 136/113/106 148/136/118 
f 150/138/120 138/117/108 137/115/107 149/137/119 
f 151/139/121 139/119/109 138/117/108 150/138/120 
f 152/140/122 140/121/110 139/119/109 151/139/121 
f 153/141/123 141/123/111 140/121/110 152/140/122 
f 154/142/124 142/125/112 141/123/111 153/141/123 
f 155/143/125 143/127/113 142/125/112 154/142/124 
f 156/144/126 144/129/114 143/127/113 155/143/125 
f 157/145/127 145/131/115 144/129/114 156/144/126 
f 147/146/117 134/133/104 145/131/115 157/145/127 
f 158/147/6 146/134/116 147/135/117 159/148/5 
f 160/149/128 148/136/118 146/134/116 158/147/6 
f 161/150/9 149/137/119 148/136/118 160/149/128 
f 162/151/10 150/138/120 149/137/119 161/150/9 
f 163/152/11 151/139/121 150/138/120 162/151/10 
f 164/153/12 152/140/122 151/139/121 163/152/11 
f 165/154/13 153/141/123 152/140/122 164/153/12 
f 166/155/14 154/142/124 153/141/123 165/154/13 
f 167/156/1 155/143/125 154/142/124 166/155/14 
f 168/157/129 156/144/126 155/143/125 167/156/1 
f 169/158/4 157/145/127 156/144/126 168/157/129 
f 159/159/5 147/146/117 157/145/127 169/158/4 
f 170/160/130 158/147/6 159/148/5 171/161/131 
f 172/162/132 160/149/128 158/147/6 170/160/130 
f 173/163/133 161/150/9 160/149/128 172/162/132 
f 174/164/134 162/151/10 161/150/9 173/163/133 
f 175/165/135 163/152/11 162/151/10 174/164/134 
f 176/166/136 164/153/12 163/152/11 175/165/135 
f 177/167/137 165/154/13 164/153/12 176/166/136 
f 178/168/138 166/155/14 165/154/13 177/167/137 
f 179/169/139 167/156/1 166/155/14 178/168/138 
f 180/170/140 168/157/129 167/156/1 179/169/139 
f 181/171/141 169/158/4 168/157/129 180/170/140 
f 171/172/131 159/159/5 169/158/4 181/171/141 
f 182/173/142 170/160/130 171/161/131 183/174/143 
f 184/175/144 172/162/132 170/160/130 182/173/142 
f 185/176/145 173/163/133 172/162/132 184/175/144 
f 186/177/146 174/164/134 173/163/133 185/176/145 
f 187/178/147 175/165/135 174/164/134 186/177/146 
f 188/179/148 176/166/136 175/165/135 187/178/147 
f 189/180/149 177/167/137 176/166/136 188/179/148 
f 190/181/150 178/168/138 177/167/137 189/180/149 
f 191/182/151 179/169/139 178/168/138 190/181/150 
f 192/183/152 180/170/140 179/169/139 191/182/151 
f 193/184/153 181/171/141 180/170/140 192/183/152 
f 183/185/143 171/172/131 181/171/141 193/184/153 
f 194/186/154 182/173/142 183/174/143 
f 194/187/154 184/175/144 182/173/142 
f 194/188/154 185/176/145 184/175/144 
f 194/189/154 186/177/146 185/176/145 
f 194/190/154 187/178/147 186/177/146 
f 194/191/154 188/179/148 187/178/147 
f 194/192/154 189/180/149 188/179/148 
f 194/193/154 190/181/150 189/180/149 
f 194/194/154 191/182/151 190/181/150 
f 194/195/154 192/183/152 191/182/151 
f 194/196/154 193/184/153 192/183/152 
f 194/197/154 183/185/143 193/184/153 
# 174 polygons - 32 triangles

