# 3ds Max Wavefront OBJ Exporter v0.97b - (c)2007 guruware
# File Created: 12.11.2016 12:18:59

mtllib obj_masque01.mtl

#
# object Masque01
#

v  0.0000 -0.0000 6.5004
v  -0.0000 20.1090 4.7586
v  -10.0545 17.4149 4.7586
v  -17.4149 10.0545 4.7586
v  -20.1090 0.0000 4.7586
v  -17.4149 -10.0545 4.7586
v  -10.0545 -17.4149 4.7586
v  -0.0000 -20.1090 4.7586
v  10.0545 -17.4149 4.7586
v  17.4149 -10.0545 4.7586
v  20.1090 -0.0000 4.7586
v  17.4149 10.0545 4.7586
v  10.0545 17.4149 4.7586
v  -17.4149 30.1635 0.0000
v  -0.0000 34.8299 0.0000
v  -30.1635 17.4149 0.0000
v  -34.8299 0.0000 -0.0000
v  -30.1636 -17.4149 -0.0000
v  -17.4149 -30.1635 -0.0000
v  -0.0000 -34.8299 -0.0000
v  17.4149 -30.1636 -0.0000
v  30.1635 -17.4150 -0.0000
v  34.8299 -0.0000 -0.0000
v  30.1636 17.4149 0.0000
v  17.4150 30.1635 0.0000
v  -20.1090 34.8299 -6.5004
v  -0.0000 40.2181 -6.5004
v  -34.8299 20.1090 -6.5004
v  -40.2181 0.0000 -6.5004
v  -34.8299 -20.1090 -6.5004
v  -20.1090 -34.8299 -6.5004
v  -0.0000 -40.2181 -6.5004
v  20.1090 -34.8299 -6.5004
v  34.8298 -20.1091 -6.5004
v  40.2181 -0.0000 -6.5004
v  34.8299 20.1090 -6.5004
v  20.1091 34.8298 -6.5004
v  -0.0000 34.5375 -6.5004
v  -17.2688 29.9104 -6.5004
v  -29.9104 17.2688 -6.5004
v  -34.5375 0.0000 -6.5004
v  -29.9104 -17.2687 -6.5004
v  -17.2688 -29.9104 -6.5004
v  -0.0000 -34.5375 -6.5004
v  17.2687 -29.9104 -6.5004
v  29.9103 -17.2688 -6.5004
v  34.5375 -0.0000 -6.5004
v  29.9104 17.2687 -6.5004
v  17.2688 29.9103 -6.5004
v  -0.0000 7.4006 -6.5004
v  -3.7003 6.4091 -6.5004
v  -6.4091 3.7003 -6.5004
v  -7.4006 0.0000 -6.5004
v  -6.4091 -3.7003 -6.5004
v  -3.7003 -6.4091 -6.5004
v  -0.0000 -7.4006 -6.5004
v  3.7003 -6.4091 -6.5004
v  6.4091 -3.7003 -6.5004
v  7.4006 -0.0000 -6.5004
v  6.4091 3.7003 -6.5004
v  3.7003 6.4091 -6.5004
v  -16.4166 4.9190 7.7953
v  -16.4166 7.3319 7.1503
v  -19.4493 7.0086 7.1503
v  -21.6694 6.1254 7.1503
v  -22.4820 4.9190 7.1503
v  -21.6694 3.7125 7.1503
v  -19.4493 2.8293 7.1503
v  -16.4166 2.5060 7.1503
v  -13.3840 2.8293 7.1503
v  -11.1639 3.7125 7.1503
v  -10.3513 4.9190 7.1503
v  -11.1639 6.1254 7.1503
v  -13.3839 7.0086 7.1503
v  -21.6694 8.5384 5.3882
v  -16.4166 9.0983 5.3882
v  -25.5146 7.0086 5.3882
v  -26.9221 4.9190 5.3882
v  -25.5146 2.8293 5.3882
v  -21.6694 1.2995 5.3882
v  -16.4166 0.7396 5.3882
v  -11.1639 1.2995 5.3882
v  -7.3186 2.8293 5.3882
v  -5.9111 4.9190 5.3882
v  -7.3186 7.0086 5.3882
v  -11.1639 8.5384 5.3882
v  -22.4820 9.0983 2.9811
v  -16.4166 9.7449 2.9811
v  -26.9221 7.3319 2.9811
v  -28.5473 4.9190 2.9811
v  -26.9221 2.5060 2.9811
v  -22.4820 0.7396 2.9811
v  -16.4166 0.0930 2.9811
v  -10.3513 0.7396 2.9811
v  -5.9111 2.5060 2.9811
v  -4.2859 4.9190 2.9811
v  -5.9111 7.3319 2.9811
v  -10.3513 9.0983 2.9811
v  -21.6694 8.5384 0.5740
v  -16.4166 9.0983 0.5740
v  -25.5146 7.0086 0.5740
v  -26.9221 4.9190 0.5740
v  -25.5146 2.8293 0.5740
v  -21.6694 1.2995 0.5740
v  -16.4166 0.7396 0.5740
v  -11.1639 1.2995 0.5740
v  -7.3186 2.8293 0.5740
v  -5.9111 4.9190 0.5740
v  -7.3186 7.0086 0.5740
v  -11.1639 8.5384 0.5740
v  -19.4493 7.0086 -1.1881
v  -16.4166 7.3319 -1.1881
v  -21.6694 6.1254 -1.1881
v  -22.4820 4.9190 -1.1881
v  -21.6694 3.7125 -1.1881
v  -19.4493 2.8293 -1.1881
v  -16.4166 2.5060 -1.1881
v  -13.3840 2.8293 -1.1881
v  -11.1639 3.7125 -1.1881
v  -10.3513 4.9190 -1.1881
v  -11.1639 6.1254 -1.1881
v  -13.3839 7.0086 -1.1881
v  -16.4166 4.9190 -1.8331
v  15.2595 4.9190 7.7953
v  15.2595 7.3319 7.1503
v  12.2268 7.0086 7.1503
v  10.0068 6.1254 7.1503
v  9.1942 4.9190 7.1503
v  10.0068 3.7125 7.1503
v  12.2268 2.8293 7.1503
v  15.2595 2.5060 7.1503
v  18.2922 2.8293 7.1503
v  20.5123 3.7125 7.1503
v  21.3249 4.9190 7.1503
v  20.5123 6.1254 7.1503
v  18.2922 7.0086 7.1503
v  10.0068 8.5384 5.3882
v  15.2595 9.0983 5.3882
v  6.1615 7.0086 5.3882
v  4.7540 4.9190 5.3882
v  6.1615 2.8293 5.3882
v  10.0068 1.2995 5.3882
v  15.2595 0.7396 5.3882
v  20.5123 1.2995 5.3882
v  24.3575 2.8293 5.3882
v  25.7650 4.9190 5.3882
v  24.3575 7.0086 5.3882
v  20.5123 8.5384 5.3882
v  9.1942 9.0983 2.9811
v  15.2595 9.7449 2.9811
v  4.7540 7.3319 2.9811
v  3.1288 4.9190 2.9811
v  4.7540 2.5060 2.9811
v  9.1942 0.7396 2.9811
v  15.2595 0.0930 2.9811
v  21.3249 0.7396 2.9811
v  25.7650 2.5060 2.9811
v  27.3902 4.9190 2.9811
v  25.7650 7.3319 2.9811
v  21.3249 9.0983 2.9811
v  10.0068 8.5384 0.5740
v  15.2595 9.0983 0.5740
v  6.1615 7.0086 0.5740
v  4.7540 4.9190 0.5740
v  6.1615 2.8293 0.5740
v  10.0068 1.2995 0.5740
v  15.2595 0.7396 0.5740
v  20.5123 1.2995 0.5740
v  24.3575 2.8293 0.5740
v  25.7650 4.9190 0.5740
v  24.3575 7.0086 0.5740
v  20.5123 8.5384 0.5740
v  12.2268 7.0086 -1.1881
v  15.2595 7.3319 -1.1881
v  10.0068 6.1254 -1.1881
v  9.1942 4.9190 -1.1881
v  10.0068 3.7125 -1.1881
v  12.2268 2.8293 -1.1881
v  15.2595 2.5060 -1.1881
v  18.2922 2.8293 -1.1881
v  20.5123 3.7125 -1.1881
v  21.3249 4.9190 -1.1881
v  20.5123 6.1254 -1.1881
v  18.2922 7.0086 -1.1881
v  15.2595 4.9190 -1.8331
v  -16.7530 -17.8530 4.1589
v  -16.7530 -13.6284 4.1589
v  16.7530 -13.6284 4.1589
v  16.7530 -17.8530 4.1589
v  -16.7530 -17.8530 5.2044
v  16.7530 -17.8530 5.2044
v  16.7530 -13.6284 5.2044
v  -16.7530 -13.6284 5.2044
v  -13.6563 -24.7477 4.1589
v  -17.8809 -24.7477 4.1589
v  -17.8809 -6.7338 4.1589
v  -13.6563 -6.7338 4.1589
v  -13.6563 -24.7477 5.2044
v  -13.6563 -6.7338 5.2044
v  -17.8809 -6.7338 5.2044
v  -17.8809 -24.7477 5.2044
v  -2.9803 -21.8665 4.1589
v  -7.2049 -21.8665 4.1589
v  -7.2049 -9.6150 4.1589
v  -2.9803 -9.6150 4.1589
v  -2.9803 -21.8665 5.2044
v  -2.9803 -9.6150 5.2044
v  -7.2049 -9.6150 5.2044
v  -7.2049 -21.8665 5.2044
v  6.9527 -20.3108 4.1589
v  2.7281 -20.3108 4.1589
v  2.7281 -11.1707 4.1589
v  6.9527 -11.1707 4.1589
v  6.9527 -20.3108 5.2044
v  6.9527 -11.1707 5.2044
v  2.7281 -11.1707 5.2044
v  2.7281 -20.3108 5.2044
v  19.1924 -17.8542 4.1589
v  14.9678 -17.8542 4.1589
v  14.9678 -11.5993 4.1589
v  19.1924 -11.5993 4.1589
v  19.1924 -17.8542 5.2044
v  19.1924 -11.5993 5.2044
v  14.9678 -11.5993 5.2044
v  14.9678 -17.8542 5.2044
# 225 vertices

vn 0.0000 -0.0000 1.0000
vn 0.0000 0.5309 0.8474
vn -0.2654 0.4598 0.8474
vn -0.4598 0.2654 0.8474
vn -0.5309 -0.0000 0.8474
vn -0.4598 -0.2655 0.8474
vn -0.2655 -0.4598 0.8474
vn -0.0000 -0.5309 0.8474
vn 0.2654 -0.4598 0.8474
vn 0.4598 -0.2655 0.8474
vn 0.5309 -0.0000 0.8474
vn 0.4598 0.2654 0.8474
vn 0.2655 0.4598 0.8474
vn -0.4380 0.7586 0.4823
vn 0.0000 0.8760 0.4823
vn -0.7586 0.4380 0.4823
vn -0.8760 0.0000 0.4823
vn -0.7586 -0.4380 0.4823
vn -0.4380 -0.7586 0.4823
vn -0.0000 -0.8760 0.4823
vn 0.4380 -0.7586 0.4823
vn 0.7586 -0.4380 0.4823
vn 0.8760 -0.0000 0.4823
vn 0.7586 0.4380 0.4823
vn 0.4380 0.7586 0.4823
vn -0.4830 0.8365 0.2588
vn 0.0000 0.9659 0.2588
vn -0.8365 0.4830 0.2588
vn -0.9659 0.0000 0.2588
vn -0.8365 -0.4830 0.2588
vn -0.4830 -0.8365 0.2588
vn -0.0000 -0.9659 0.2588
vn 0.4830 -0.8365 0.2588
vn 0.8365 -0.4830 0.2588
vn 0.9659 -0.0000 0.2588
vn 0.8365 0.4830 0.2588
vn 0.4830 0.8365 0.2588
vn 0.0000 0.0000 -1.0000
vn -0.0000 -0.0000 1.0000
vn 0.0000 0.8330 0.5532
vn -0.1925 0.7787 0.5972
vn -0.4264 0.5684 0.7037
vn -0.6293 -0.0000 0.7772
vn -0.4264 -0.5684 0.7037
vn -0.1925 -0.7787 0.5972
vn -0.0000 -0.8330 0.5532
vn 0.1925 -0.7787 0.5972
vn 0.4264 -0.5684 0.7037
vn 0.6293 -0.0000 0.7772
vn 0.4264 0.5684 0.7037
vn 0.1925 0.7787 0.5972
vn -0.2412 0.9439 0.2254
vn 0.0000 0.9804 0.1972
vn -0.6034 0.7281 0.3253
vn -0.9145 0.0000 0.4047
vn -0.6034 -0.7281 0.3253
vn -0.2412 -0.9439 0.2254
vn -0.0000 -0.9804 0.1972
vn 0.2412 -0.9439 0.2254
vn 0.6034 -0.7281 0.3253
vn 0.9145 -0.0000 0.4047
vn 0.6034 0.7281 0.3253
vn 0.2412 0.9439 0.2254
vn -0.2473 0.9689 0.0000
vn 0.0000 1.0000 0.0000
vn -0.6439 0.7651 0.0000
vn -1.0000 0.0000 0.0000
vn -0.6439 -0.7651 -0.0000
vn -0.2473 -0.9689 -0.0000
vn -0.0000 -1.0000 -0.0000
vn 0.2473 -0.9689 -0.0000
vn 0.6439 -0.7651 -0.0000
vn 1.0000 -0.0000 -0.0000
vn 0.6439 0.7651 0.0000
vn 0.2473 0.9689 0.0000
vn -0.2412 0.9439 -0.2254
vn 0.0000 0.9804 -0.1972
vn -0.6034 0.7281 -0.3253
vn -0.9145 0.0000 -0.4047
vn -0.6034 -0.7281 -0.3253
vn -0.2412 -0.9439 -0.2254
vn -0.0000 -0.9804 -0.1972
vn 0.2412 -0.9439 -0.2254
vn 0.6034 -0.7281 -0.3253
vn 0.9145 -0.0000 -0.4047
vn 0.6034 0.7281 -0.3253
vn 0.2412 0.9439 -0.2254
vn -0.1925 0.7787 -0.5972
vn 0.0000 0.8330 -0.5532
vn -0.4264 0.5684 -0.7037
vn -0.6293 0.0000 -0.7772
vn -0.4264 -0.5684 -0.7037
vn -0.1925 -0.7787 -0.5972
vn -0.0000 -0.8330 -0.5532
vn 0.1925 -0.7787 -0.5972
vn 0.4264 -0.5684 -0.7037
vn 0.6293 -0.0000 -0.7772
vn 0.4264 0.5684 -0.7037
vn 0.1925 0.7787 -0.5972
vn -0.0000 0.0000 -1.0000
vn 0.0000 -1.0000 -0.0000
vn 1.0000 0.0000 -0.0000
vn -1.0000 0.0000 -0.0000
# 103 vertex normals

vt 0.2001 0.5000 0.0000
vt 0.2001 0.7490 0.0000
vt 0.1506 0.7156 0.0000
vt 0.1143 0.6245 0.0000
vt 0.1011 0.5000 0.0000
vt 0.1143 0.3755 0.0000
vt 0.1506 0.2844 0.0000
vt 0.2001 0.2510 0.0000
vt 0.2496 0.2844 0.0000
vt 0.2859 0.3755 0.0000
vt 0.2992 0.5000 0.0000
vt 0.2859 0.6245 0.0000
vt 0.2496 0.7156 0.0000
vt 0.1143 0.8735 0.0000
vt 0.2001 0.9313 0.0000
vt 0.0515 0.7156 0.0000
vt 0.0285 0.5000 0.0000
vt 0.0515 0.2844 0.0000
vt 0.1143 0.1265 0.0000
vt 0.2001 0.0687 0.0000
vt 0.2859 0.1265 0.0000
vt 0.3487 0.2844 0.0000
vt 0.3717 0.5000 0.0000
vt 0.3487 0.7156 0.0000
vt 0.2859 0.8735 0.0000
vt 0.1011 0.9313 0.0000
vt 0.2001 0.9980 0.0000
vt 0.0285 0.7490 0.0000
vt 0.0020 0.5000 0.0000
vt 0.0285 0.2510 0.0000
vt 0.1011 0.0687 0.0000
vt 0.2001 0.0020 0.0000
vt 0.2992 0.0687 0.0000
vt 0.3717 0.2510 0.0000
vt 0.3982 0.5000 0.0000
vt 0.3717 0.7490 0.0000
vt 0.2992 0.9313 0.0000
vt 0.2001 0.9277 0.0000
vt 0.1151 0.8704 0.0000
vt 0.0528 0.7138 0.0000
vt 0.0300 0.5000 0.0000
vt 0.0528 0.2862 0.0000
vt 0.1151 0.1296 0.0000
vt 0.2001 0.0723 0.0000
vt 0.2852 0.1296 0.0000
vt 0.3475 0.2862 0.0000
vt 0.3703 0.5000 0.0000
vt 0.3475 0.7138 0.0000
vt 0.2852 0.8704 0.0000
vt 0.2001 0.5916 0.0000
vt 0.1819 0.5794 0.0000
vt 0.1685 0.5458 0.0000
vt 0.1637 0.5000 0.0000
vt 0.1685 0.4542 0.0000
vt 0.1819 0.4206 0.0000
vt 0.2001 0.4084 0.0000
vt 0.2183 0.4206 0.0000
vt 0.2317 0.4542 0.0000
vt 0.2366 0.5000 0.0000
vt 0.2317 0.5458 0.0000
vt 0.2183 0.5794 0.0000
vt 0.5075 0.3015 0.0000
vt 0.5075 0.3491 0.0000
vt 0.4837 0.3427 0.0000
vt 0.4662 0.3253 0.0000
vt 0.4599 0.3015 0.0000
vt 0.4662 0.2777 0.0000
vt 0.4837 0.2603 0.0000
vt 0.5075 0.2539 0.0000
vt 0.5312 0.2603 0.0000
vt 0.5487 0.2777 0.0000
vt 0.5550 0.3015 0.0000
vt 0.5487 0.3253 0.0000
vt 0.5312 0.3427 0.0000
vt 0.4662 0.3729 0.0000
vt 0.5075 0.3839 0.0000
vt 0.4361 0.3427 0.0000
vt 0.4250 0.3015 0.0000
vt 0.4361 0.2603 0.0000
vt 0.4662 0.2302 0.0000
vt 0.5075 0.2191 0.0000
vt 0.5487 0.2302 0.0000
vt 0.5788 0.2603 0.0000
vt 0.5899 0.3015 0.0000
vt 0.5788 0.3427 0.0000
vt 0.5487 0.3729 0.0000
vt 0.4599 0.3839 0.0000
vt 0.5075 0.3967 0.0000
vt 0.4250 0.3491 0.0000
vt 0.4123 0.3015 0.0000
vt 0.4250 0.2539 0.0000
vt 0.4599 0.2191 0.0000
vt 0.5075 0.2064 0.0000
vt 0.5550 0.2191 0.0000
vt 0.5899 0.2539 0.0000
vt 0.6026 0.3015 0.0000
vt 0.5899 0.3491 0.0000
vt 0.5550 0.3839 0.0000
vt 0.5075 0.2582 0.0000
vt 0.5312 0.2645 0.0000
vt 0.5075 0.3057 0.0000
vt 0.5075 0.0972 0.0000
vt 0.5075 0.1447 0.0000
vt 0.4837 0.1384 0.0000
vt 0.4662 0.1209 0.0000
vt 0.4599 0.0972 0.0000
vt 0.4662 0.0734 0.0000
vt 0.4837 0.0560 0.0000
vt 0.5075 0.0496 0.0000
vt 0.5312 0.0560 0.0000
vt 0.5487 0.0734 0.0000
vt 0.5550 0.0972 0.0000
vt 0.5487 0.1209 0.0000
vt 0.5312 0.1384 0.0000
vt 0.4662 0.1685 0.0000
vt 0.5075 0.1796 0.0000
vt 0.4361 0.1384 0.0000
vt 0.4250 0.0972 0.0000
vt 0.4361 0.0560 0.0000
vt 0.4662 0.0258 0.0000
vt 0.5075 0.0147 0.0000
vt 0.5487 0.0258 0.0000
vt 0.5788 0.0560 0.0000
vt 0.5899 0.0972 0.0000
vt 0.5788 0.1384 0.0000
vt 0.5487 0.1685 0.0000
vt 0.4599 0.1796 0.0000
vt 0.5075 0.1923 0.0000
vt 0.4250 0.1447 0.0000
vt 0.4123 0.0972 0.0000
vt 0.4250 0.0496 0.0000
vt 0.4599 0.0147 0.0000
vt 0.5075 0.0020 0.0000
vt 0.5550 0.0147 0.0000
vt 0.5899 0.0496 0.0000
vt 0.6026 0.0972 0.0000
vt 0.5899 0.1447 0.0000
vt 0.5550 0.1796 0.0000
vt 0.6167 0.0020 0.0000
vt 0.6167 0.0605 0.0000
vt 0.8013 0.0605 0.0000
vt 0.8013 0.0020 0.0000
vt 0.4361 0.4107 0.0000
vt 0.4123 0.4107 0.0000
vt 0.4123 0.6657 0.0000
vt 0.4361 0.6657 0.0000
vt 0.6410 0.2064 0.0000
vt 0.6167 0.2064 0.0000
vt 0.6167 0.3835 0.0000
vt 0.6410 0.3835 0.0000
vt 0.4750 0.4107 0.0000
vt 0.4501 0.4107 0.0000
vt 0.4501 0.5458 0.0000
vt 0.4750 0.5458 0.0000
vt 0.6424 0.0746 0.0000
vt 0.6167 0.0746 0.0000
vt 0.6167 0.1705 0.0000
vt 0.6424 0.1705 0.0000
# 158 texture coords

g Masque01
usemtl 11___Default
s 1
f 1/1/1 2/2/2 3/3/3 
f 1/1/1 3/3/3 4/4/4 
f 1/1/1 4/4/4 5/5/5 
f 1/1/1 5/5/5 6/6/6 
f 1/1/1 6/6/6 7/7/7 
f 1/1/1 7/7/7 8/8/8 
f 1/1/1 8/8/8 9/9/9 
f 1/1/1 9/9/9 10/10/10 
f 1/1/1 10/10/10 11/11/11 
f 1/1/1 11/11/11 12/12/12 
f 1/1/1 12/12/12 13/13/13 
f 1/1/1 13/13/13 2/2/2 
f 14/14/14 3/3/3 2/2/2 15/15/15 
f 16/16/16 4/4/4 3/3/3 14/14/14 
f 17/17/17 5/5/5 4/4/4 16/16/16 
f 18/18/18 6/6/6 5/5/5 17/17/17 
f 19/19/19 7/7/7 6/6/6 18/18/18 
f 20/20/20 8/8/8 7/7/7 19/19/19 
f 21/21/21 9/9/9 8/8/8 20/20/20 
f 22/22/22 10/10/10 9/9/9 21/21/21 
f 23/23/23 11/11/11 10/10/10 22/22/22 
f 24/24/24 12/12/12 11/11/11 23/23/23 
f 25/25/25 13/13/13 12/12/12 24/24/24 
f 15/15/15 2/2/2 13/13/13 25/25/25 
f 26/26/26 14/14/14 15/15/15 27/27/27 
f 28/28/28 16/16/16 14/14/14 26/26/26 
f 29/29/29 17/17/17 16/16/16 28/28/28 
f 30/30/30 18/18/18 17/17/17 29/29/29 
f 31/31/31 19/19/19 18/18/18 30/30/30 
f 32/32/32 20/20/20 19/19/19 31/31/31 
f 33/33/33 21/21/21 20/20/20 32/32/32 
f 34/34/34 22/22/22 21/21/21 33/33/33 
f 35/35/35 23/23/23 22/22/22 34/34/34 
f 36/36/36 24/24/24 23/23/23 35/35/35 
f 37/37/37 25/25/25 24/24/24 36/36/36 
f 27/27/27 15/15/15 25/25/25 37/37/37 
s off
f 26/26/38 27/27/38 38/38/38 39/39/38 
f 28/28/38 26/26/38 39/39/38 40/40/38 
f 29/29/38 28/28/38 40/40/38 41/41/38 
f 30/30/38 29/29/38 41/41/38 42/42/38 
f 31/31/38 30/30/38 42/42/38 43/43/38 
f 32/32/38 31/31/38 43/43/38 44/44/38 
f 33/33/38 32/32/38 44/44/38 45/45/38 
f 34/34/38 33/33/38 45/45/38 46/46/38 
f 35/35/38 34/34/38 46/46/38 47/47/38 
f 36/36/38 35/35/38 47/47/38 48/48/38 
f 37/37/38 36/36/38 48/48/38 49/49/38 
f 27/27/38 37/37/38 49/49/38 38/38/38 
f 39/39/38 38/38/38 50/50/38 51/51/38 
f 40/40/38 39/39/38 51/51/38 52/52/38 
f 41/41/38 40/40/38 52/52/38 53/53/38 
f 42/42/38 41/41/38 53/53/38 54/54/38 
f 43/43/38 42/42/38 54/54/38 55/55/38 
f 44/44/38 43/43/38 55/55/38 56/56/38 
f 45/45/38 44/44/38 56/56/38 57/57/38 
f 46/46/38 45/45/38 57/57/38 58/58/38 
f 47/47/38 46/46/38 58/58/38 59/59/38 
f 48/48/38 47/47/38 59/59/38 60/60/38 
f 49/49/38 48/48/38 60/60/38 61/61/38 
f 38/38/38 49/49/38 61/61/38 50/50/38 
f 61/61/38 60/60/38 59/59/38 51/51/38 
f 59/59/38 58/58/38 57/57/38 55/55/38 
f 57/57/38 56/56/38 55/55/38 
f 55/55/38 54/54/38 53/53/38 51/51/38 
f 53/53/38 52/52/38 51/51/38 
f 59/59/38 55/55/38 51/51/38 
f 50/50/38 61/61/38 51/51/38 
s 1
f 62/62/39 63/63/40 64/64/41 
f 62/62/39 64/64/41 65/65/42 
f 62/62/39 65/65/42 66/66/43 
f 62/62/39 66/66/43 67/67/44 
f 62/62/39 67/67/44 68/68/45 
f 62/62/39 68/68/45 69/69/46 
f 62/62/39 69/69/46 70/70/47 
f 62/62/39 70/70/47 71/71/48 
f 62/62/39 71/71/48 72/72/49 
f 62/62/39 72/72/49 73/73/50 
f 62/62/39 73/73/50 74/74/51 
f 62/62/39 74/74/51 63/63/40 
f 75/75/52 64/64/41 63/63/40 76/76/53 
f 77/77/54 65/65/42 64/64/41 75/75/52 
f 78/78/55 66/66/43 65/65/42 77/77/54 
f 79/79/56 67/67/44 66/66/43 78/78/55 
f 80/80/57 68/68/45 67/67/44 79/79/56 
f 81/81/58 69/69/46 68/68/45 80/80/57 
f 82/82/59 70/70/47 69/69/46 81/81/58 
f 83/83/60 71/71/48 70/70/47 82/82/59 
f 84/84/61 72/72/49 71/71/48 83/83/60 
f 85/85/62 73/73/50 72/72/49 84/84/61 
f 86/86/63 74/74/51 73/73/50 85/85/62 
f 76/76/53 63/63/40 74/74/51 86/86/63 
f 87/87/64 75/75/52 76/76/53 88/88/65 
f 89/89/66 77/77/54 75/75/52 87/87/64 
f 90/90/67 78/78/55 77/77/54 89/89/66 
f 91/91/68 79/79/56 78/78/55 90/90/67 
f 92/92/69 80/80/57 79/79/56 91/91/68 
f 93/93/70 81/81/58 80/80/57 92/92/69 
f 94/94/71 82/82/59 81/81/58 93/93/70 
f 95/95/72 83/83/60 82/82/59 94/94/71 
f 96/96/73 84/84/61 83/83/60 95/95/72 
f 97/97/74 85/85/62 84/84/61 96/96/73 
f 98/98/75 86/86/63 85/85/62 97/97/74 
f 88/88/65 76/76/53 86/86/63 98/98/75 
f 99/75/76 87/87/64 88/88/65 100/76/77 
f 101/77/78 89/89/66 87/87/64 99/75/76 
f 102/78/79 90/90/67 89/89/66 101/77/78 
f 103/79/80 91/91/68 90/90/67 102/78/79 
f 104/80/81 92/92/69 91/91/68 103/79/80 
f 105/81/82 93/93/70 92/92/69 104/80/81 
f 106/82/83 94/94/71 93/93/70 105/81/82 
f 107/83/84 95/95/72 94/94/71 106/82/83 
f 108/84/85 96/96/73 95/95/72 107/83/84 
f 109/85/86 97/97/74 96/96/73 108/84/85 
f 110/86/87 98/98/75 97/97/74 109/85/86 
f 100/76/77 88/88/65 98/98/75 110/86/87 
f 111/64/88 99/75/76 100/76/77 112/63/89 
f 113/65/90 101/77/78 99/75/76 111/64/88 
f 114/66/91 102/78/79 101/77/78 113/65/90 
f 115/67/92 103/79/80 102/78/79 114/66/91 
f 116/68/93 104/80/81 103/79/80 115/67/92 
f 117/99/94 105/81/82 104/80/81 116/68/93 
f 118/100/95 106/82/83 105/81/82 117/99/94 
f 119/71/96 107/83/84 106/82/83 118/100/95 
f 120/72/97 108/84/85 107/83/84 119/71/96 
f 121/73/98 109/85/86 108/84/85 120/72/97 
f 122/74/99 110/86/87 109/85/86 121/73/98 
f 112/63/89 100/76/77 110/86/87 122/74/99 
f 123/101/100 111/64/88 112/63/89 
f 123/101/100 113/65/90 111/64/88 
f 123/101/100 114/66/91 113/65/90 
f 123/101/100 115/67/92 114/66/91 
f 123/101/100 116/68/93 115/67/92 
f 123/101/100 117/99/94 116/68/93 
f 123/101/100 118/100/95 117/99/94 
f 123/101/100 119/71/96 118/100/95 
f 123/101/100 120/72/97 119/71/96 
f 123/101/100 121/73/98 120/72/97 
f 123/101/100 122/74/99 121/73/98 
f 123/101/100 112/63/89 122/74/99 
f 124/102/1 125/103/40 126/104/41 
f 124/102/1 126/104/41 127/105/42 
f 124/102/1 127/105/42 128/106/43 
f 124/102/1 128/106/43 129/107/44 
f 124/102/1 129/107/44 130/108/45 
f 124/102/1 130/108/45 131/109/46 
f 124/102/1 131/109/46 132/110/47 
f 124/102/1 132/110/47 133/111/48 
f 124/102/1 133/111/48 134/112/49 
f 124/102/1 134/112/49 135/113/50 
f 124/102/1 135/113/50 136/114/51 
f 124/102/1 136/114/51 125/103/40 
f 137/115/52 126/104/41 125/103/40 138/116/53 
f 139/117/54 127/105/42 126/104/41 137/115/52 
f 140/118/55 128/106/43 127/105/42 139/117/54 
f 141/119/56 129/107/44 128/106/43 140/118/55 
f 142/120/57 130/108/45 129/107/44 141/119/56 
f 143/121/58 131/109/46 130/108/45 142/120/57 
f 144/122/59 132/110/47 131/109/46 143/121/58 
f 145/123/60 133/111/48 132/110/47 144/122/59 
f 146/124/61 134/112/49 133/111/48 145/123/60 
f 147/125/62 135/113/50 134/112/49 146/124/61 
f 148/126/63 136/114/51 135/113/50 147/125/62 
f 138/116/53 125/103/40 136/114/51 148/126/63 
f 149/127/64 137/115/52 138/116/53 150/128/65 
f 151/129/66 139/117/54 137/115/52 149/127/64 
f 152/130/67 140/118/55 139/117/54 151/129/66 
f 153/131/68 141/119/56 140/118/55 152/130/67 
f 154/132/69 142/120/57 141/119/56 153/131/68 
f 155/133/70 143/121/58 142/120/57 154/132/69 
f 156/134/71 144/122/59 143/121/58 155/133/70 
f 157/135/72 145/123/60 144/122/59 156/134/71 
f 158/136/73 146/124/61 145/123/60 157/135/72 
f 159/137/74 147/125/62 146/124/61 158/136/73 
f 160/138/75 148/126/63 147/125/62 159/137/74 
f 150/128/65 138/116/53 148/126/63 160/138/75 
f 161/115/76 149/127/64 150/128/65 162/116/77 
f 163/117/78 151/129/66 149/127/64 161/115/76 
f 164/118/79 152/130/67 151/129/66 163/117/78 
f 165/119/80 153/131/68 152/130/67 164/118/79 
f 166/120/81 154/132/69 153/131/68 165/119/80 
f 167/121/82 155/133/70 154/132/69 166/120/81 
f 168/122/83 156/134/71 155/133/70 167/121/82 
f 169/123/84 157/135/72 156/134/71 168/122/83 
f 170/124/85 158/136/73 157/135/72 169/123/84 
f 171/125/86 159/137/74 158/136/73 170/124/85 
f 172/126/87 160/138/75 159/137/74 171/125/86 
f 162/116/77 150/128/65 160/138/75 172/126/87 
f 173/104/88 161/115/76 162/116/77 174/103/89 
f 175/105/90 163/117/78 161/115/76 173/104/88 
f 176/106/91 164/118/79 163/117/78 175/105/90 
f 177/107/92 165/119/80 164/118/79 176/106/91 
f 178/108/93 166/120/81 165/119/80 177/107/92 
f 179/109/94 167/121/82 166/120/81 178/108/93 
f 180/110/95 168/122/83 167/121/82 179/109/94 
f 181/111/96 169/123/84 168/122/83 180/110/95 
f 182/112/97 170/124/85 169/123/84 181/111/96 
f 183/113/98 171/125/86 170/124/85 182/112/97 
f 184/114/99 172/126/87 171/125/86 183/113/98 
f 174/103/89 162/116/77 172/126/87 184/114/99 
f 185/102/100 173/104/88 174/103/89 
f 185/102/100 175/105/90 173/104/88 
f 185/102/100 176/106/91 175/105/90 
f 185/102/100 177/107/92 176/106/91 
f 185/102/100 178/108/93 177/107/92 
f 185/102/100 179/109/94 178/108/93 
f 185/102/100 180/110/95 179/109/94 
f 185/102/100 181/111/96 180/110/95 
f 185/102/100 182/112/97 181/111/96 
f 185/102/100 183/113/98 182/112/97 
f 185/102/100 184/114/99 183/113/98 
f 185/102/100 174/103/89 184/114/99 
s 2
f 186/139/38 187/140/38 188/141/38 189/142/38 
s 4
f 190/139/1 191/142/1 192/141/1 193/140/1 
s 8
f 186/139/101 189/142/101 191/142/101 190/139/101 
s 16
f 189/142/102 188/141/102 192/141/102 191/142/102 
s 32
f 188/141/65 187/140/65 193/140/65 192/141/65 
s 64
f 187/140/103 186/139/103 190/139/103 193/140/103 
s 2
f 194/143/38 195/144/38 196/145/38 197/146/38 
s 4
f 198/143/1 199/146/1 200/145/1 201/144/1 
s 8
f 194/143/102 197/146/102 199/146/102 198/143/102 
s 16
f 197/146/65 196/145/65 200/145/65 199/146/65 
s 32
f 196/145/103 195/144/103 201/144/103 200/145/103 
s 64
f 195/144/101 194/143/101 198/143/101 201/144/101 
s 2
f 202/147/38 203/148/38 204/149/38 205/150/38 
s 4
f 206/147/1 207/150/1 208/149/1 209/148/1 
s 8
f 202/147/102 205/150/102 207/150/102 206/147/102 
s 16
f 205/150/65 204/149/65 208/149/65 207/150/65 
s 32
f 204/149/103 203/148/103 209/148/103 208/149/103 
s 64
f 203/148/101 202/147/101 206/147/101 209/148/101 
s 2
f 210/151/38 211/152/38 212/153/38 213/154/38 
s 4
f 214/151/1 215/154/1 216/153/1 217/152/1 
s 8
f 210/151/102 213/154/102 215/154/102 214/151/102 
s 16
f 213/154/65 212/153/65 216/153/65 215/154/65 
s 32
f 212/153/103 211/152/103 217/152/103 216/153/103 
s 64
f 211/152/101 210/151/101 214/151/101 217/152/101 
s 2
f 218/155/38 219/156/38 220/157/38 221/158/38 
s 4
f 222/155/1 223/158/1 224/157/1 225/156/1 
s 8
f 218/155/102 221/158/102 223/158/102 222/155/102 
s 16
f 221/158/65 220/157/65 224/157/65 223/158/65 
s 32
f 220/157/103 219/156/103 225/156/103 224/157/103 
s 64
f 219/156/101 218/155/101 222/155/101 225/156/101 
# 177 polygons - 64 triangles

